<?xml version="1.0" encoding="UTF-8" standalone="no"?>
<svg
   xmlns:dc="http://purl.org/dc/elements/1.1/"
   xmlns:cc="http://creativecommons.org/ns#"
   xmlns:rdf="http://www.w3.org/1999/02/22-rdf-syntax-ns#"
   xmlns:svg="http://www.w3.org/2000/svg"
   xmlns="http://www.w3.org/2000/svg"
   xmlns:sodipodi="http://sodipodi.sourceforge.net/DTD/sodipodi-0.dtd"
   xmlns:inkscape="http://www.inkscape.org/namespaces/inkscape"
   width="100"
   height="100"
   viewBox="0 0 26.458333 26.458387"
   version="1.1"
   id="svg1580"
   inkscape:version="1.0.1 (3bc2e813f5, 2020-09-07)"
   sodipodi:docname="asteroid1.svg">
  <defs
     id="defs1574" />
  <sodipodi:namedview
     id="base"
     pagecolor="#ffffff"
     bordercolor="#666666"
     borderopacity="1.0"
     inkscape:pageopacity="0.0"
     inkscape:pageshadow="2"
     inkscape:zoom="2.8"
     inkscape:cx="53.086476"
     inkscape:cy="80.844336"
     inkscape:document-units="mm"
     inkscape:current-layer="layer2"
     inkscape:document-rotation="0"
     showgrid="false"
     inkscape:window-width="1920"
     inkscape:window-height="1017"
     inkscape:window-x="-8"
     inkscape:window-y="-8"
     inkscape:window-maximized="1"
     inkscape:pagecheckerboard="0"
     units="px"
     scale-x="1" />
  <metadata
     id="metadata1577">
    <rdf:RDF>
      <cc:Work
         rdf:about="">
        <dc:format>image/svg+xml</dc:format>
        <dc:type
           rdf:resource="http://purl.org/dc/dcmitype/StillImage" />
        <dc:title></dc:title>
      </cc:Work>
    </rdf:RDF>
  </metadata>
  <g
     inkscape:groupmode="layer"
     id="layer2"
     inkscape:label="asteroide nuevo">
    <path
       style="fill:#1a1a1a;fill-opacity:1;stroke:#000000;stroke-width:0.375731;stroke-linecap:butt;stroke-linejoin:miter;stroke-miterlimit:4;stroke-dasharray:none;stroke-opacity:1"
       d="m 18.90711,5.2386928 c 0,0 0.984061,-0.092154 1.315066,0.8109525 0.331002,0.903106 0.993008,1.4560278 0.993008,1.4560278 0,0 0.653054,-0.1474457 1.118255,0.433122 0.465187,0.5805688 0.670946,1.1979974 0.670946,1.1979974 l 0.05372,1.4468125 -2.102315,0.193524 -3.757331,-2.8475488 z"
       id="path2051" />
    <path
       style="display:inline;opacity:1;fill:#333333;fill-opacity:1;stroke:#000000;stroke-width:0.375731;stroke-linecap:butt;stroke-linejoin:miter;stroke-miterlimit:4;stroke-dasharray:none;stroke-opacity:1"
       d="m 23.76293,8.3525802 c 0,0 0.60562,0.9890852 0.698492,1.9575268 0.120744,1.259084 0.284976,2.94724 0.03019,4.7019 -0.01959,0.134955 0.704769,0.465793 0.680005,0.601369 -0.194625,1.065507 -0.821016,2.236348 -1.449967,3.249999 -0.07676,0.12372 -0.638282,-0.04026 -0.723232,0.08135 -0.800898,1.146616 -1.973545,2.192929 -3.673618,3.016901 -0.331485,0.160662 -0.242333,1.192836 -0.633782,1.183769 -2.060301,-0.04772 -3.814064,-0.0225 -5.224153,0.110938 C 12.024253,23.392848 10.29362,23.08533 9.4088688,22.85952 7.2946742,22.319928 7.1971659,22.486037 7.1971659,22.486037 c 0,0 0.2291248,-1.201058 -0.3250778,-1.631622 C 5.4912213,19.781605 3.2429795,18.082379 2.4099777,15.297598 2.3672238,15.154682 0.92057256,14.578316 0.85093696,14.44317 0.41197814,13.591267 0.43925524,11.8485 1.2237604,10.793163 1.610619,10.272751 2.3914337,10.715416 2.6354617,10.095471 3.6032235,7.6368788 6.0085746,6.1495833 8.2584806,4.7303984 8.3581799,4.6675113 8.2075855,3.9333536 8.3075594,3.8734127 10.421126,2.6062586 12.91558,1.7391897 14.213242,2.1702775 c 0.271166,0.090082 0.164969,0.4924272 0.353113,0.6758608 0,0 6.990736,1.3292434 4.371506,2.2398213 -0.458055,0.1592432 -1.321209,3.7895016 0.290032,3.8310445 1.301032,0.033546 1.751939,2.1537799 3.018631,1.5957549 0.650598,-0.286612 0.506137,-1.8145276 1.516407,-2.160183 z"
       id="path2024"
       sodipodi:nodetypes="cssssssssscsssssssscsssc" />
    <path
       style="fill:#1a1a1a;fill-opacity:1;stroke:#000000;stroke-width:0.375731;stroke-linecap:butt;stroke-linejoin:miter;stroke-miterlimit:4;stroke-dasharray:none;stroke-opacity:1"
       d="m 18.80464,23.112667 c -0.70849,0.05213 -2.100163,-0.781951 -3.11229,-1.185956 -1.012126,-0.404009 -2.467058,0.20852 -3.200849,0.09122 -0.733792,-0.117292 -1.657359,-1.212021 -3.1249426,-1.146857 -1.4675826,0.06516 -2.1693967,1.614959 -2.1693967,1.614959 0.5413321,0.801103 1.5292058,1.360558 2.7292406,1.696293 0.5412947,0.151439 3.4283437,-0.498527 4.0344617,-0.436479 2.524502,0.258432 3.122096,0.511665 4.843776,-0.633186 z"
       id="path2041"
       sodipodi:nodetypes="cssscssc" />
    <path
       style="fill:none;stroke:#000000;stroke-width:0.375731;stroke-linecap:round;stroke-linejoin:miter;stroke-miterlimit:4;stroke-dasharray:none;stroke-opacity:1"
       d="m 10.166848,19.402713 c 0,0 4.258304,-0.589784 6.441135,0.921536"
       id="path2043" />
    <path
       style="fill:none;stroke:#000000;stroke-width:0.375731;stroke-linecap:round;stroke-linejoin:miter;stroke-miterlimit:4;stroke-dasharray:none;stroke-opacity:1"
       d="m 5.2488131,11.637226 c 0,0 -0.5443974,1.559898 -1.5093293,2.201665 -0.5761128,0.383166 -0.3593865,0.76412 -0.2335575,1.125045 0.1535172,0.440346 0.6275242,0.750563 1.0675751,0.872258 0.440051,0.121695 1.0447812,1.04206 1.0447812,1.04206 0,0 0.4431426,0.612269 0.9300476,0.435555 0.486904,-0.176713 1.1567365,-0.392386 1.7265223,-0.217201 0.5697868,0.175185 1.1786636,0.579998 1.1786636,0.579998"
       id="path2045"
       sodipodi:nodetypes="cssscssc" />
    <path
       style="fill:#1a1a1a;fill-opacity:1;stroke:#000000;stroke-width:0.375731;stroke-linecap:butt;stroke-linejoin:miter;stroke-miterlimit:4;stroke-dasharray:none;stroke-opacity:1"
       d="m 5.0771701,13.733348 c -0.091917,0.13495 -1.0150635,0.313539 -0.8534738,0.621632 0.1615885,0.308095 0.8743165,0.445625 0.9501469,0.958563 0.075836,0.512935 0.4549996,0.638302 0.7706523,0.848968 0.347139,0.231679 0.6213703,0.68067 1.1735909,0.415234 0.5522196,-0.265437 0.6117531,-0.151928 0.3964143,-0.775762 -0.2153399,-0.623831 -1.0145672,-1.100771 -1.0145672,-1.100771 0,0 -0.852607,-0.520552 -0.8625653,-0.714022 -0.00993,-0.19347 -0.3600834,-0.547652 -0.5601981,-0.253842 z"
       id="path2047"
       sodipodi:nodetypes="sssssscss" />
    <path
       style="fill:none;stroke:#000000;stroke-width:0.375731;stroke-linecap:round;stroke-linejoin:miter;stroke-miterlimit:4;stroke-dasharray:none;stroke-opacity:1"
       d="m 6.9567481,12.896775 c 0,0 1.7048729,1.680227 1.7986401,2.905909"
       id="path2049"
       sodipodi:nodetypes="cc" />
    <path
       style="fill:none;stroke:#000000;stroke-width:0.375731;stroke-linecap:round;stroke-linejoin:miter;stroke-miterlimit:4;stroke-dasharray:none;stroke-opacity:1"
       d="m 16.464845,18.260007 c 0,0 1.896557,-0.53449 2.486993,-0.221168 0.590439,0.313322 1.234551,-0.645076 1.234551,-0.645076 0,0 0.608331,-0.571354 0.608331,-1.308583 0,-0.73723 0.500977,-1.345444 -0.304165,-1.640335 -0.805142,-0.294893 -1.405535,-0.942814 -2.210676,-1.864349"
       id="path2053"
       sodipodi:nodetypes="cscssc" />
    <path
       style="fill:#1a1a1a;fill-opacity:1;stroke:#000000;stroke-width:0.375731;stroke-linecap:round;stroke-linejoin:miter;stroke-miterlimit:4;stroke-dasharray:none;stroke-opacity:1"
       d="m 19.168375,14.937521 c 0.413254,-0.207191 0.556669,-0.267168 0.714814,0.09123 0.158146,0.358392 0.493412,0.768917 0.15182,1.172924 -0.341594,0.40401 -0.619929,0.612527 -0.809702,0.957888 -0.189774,0.345362 -0.363904,0.36136 -0.872958,0.143357 -0.0036,-0.0016 -1.276746,-1.316151 0.816026,-2.365397 z"
       id="path2055"
       sodipodi:nodetypes="ssssss" />
    <path
       style="fill:none;stroke:#000000;stroke-width:0.375731;stroke-linecap:round;stroke-linejoin:miter;stroke-miterlimit:4;stroke-dasharray:none;stroke-opacity:1"
       d="m 17.504692,14.259831 c 0,0 -0.929892,1.192473 -0.752769,2.163394"
       id="path2057" />
    <path
       style="fill:none;stroke:#000000;stroke-width:0.375731;stroke-linecap:round;stroke-linejoin:miter;stroke-miterlimit:4;stroke-dasharray:none;stroke-opacity:1"
       d="M 9.5585193,11.090451 C 9.6709083,9.2173745 8.8917426,9.4875513 10.184741,7.7360576 c 0,0 0.587593,-1.3348216 0.823034,-1.7693501 0.429408,-0.7925217 2.522778,-1.0689829 2.522778,-1.0689829 0,0 1.651297,-0.09013 1.84288,0.7187986 0.189728,0.8010974 0.879599,2.9909303 1.824987,3.4465464"
       id="path2059"
       sodipodi:nodetypes="ccscsc" />
    <path
       style="fill:#1a1a1a;fill-opacity:1;stroke:#000000;stroke-width:0.375731;stroke-linecap:butt;stroke-linejoin:miter;stroke-miterlimit:4;stroke-dasharray:none;stroke-opacity:1"
       d="m 12.671735,8.9801319 c -0.825141,0.2429182 -2.155992,1.9352271 -2.191776,0.4884152 -0.03578,-1.4468131 0.88858,-1.221006 1.118253,-1.7969974 0.19483,-0.4886103 0.401927,-1.087477 0.49203,-1.382305 0.152083,-0.4976299 1.106631,-0.6418423 1.646069,-0.5252758 0.630694,0.1362868 1.747533,1.4462564 1.037737,2.6724561 -0.644194,1.1128753 -1.407608,0.3391891 -2.102313,0.5437069 z"
       id="path2061"
       sodipodi:nodetypes="sssssss" />
    <path
       style="fill:none;stroke:#000000;stroke-width:0.375731;stroke-linecap:round;stroke-linejoin:miter;stroke-miterlimit:4;stroke-dasharray:none;stroke-opacity:1"
       d="m 11.66978,10.832421 c 0,0 2.791156,-0.589783 3.649975,-1.5113206"
       id="path2063" />
  </g>
</svg>
