<svg class="img-fluid" xmlns="http://www.w3.org/2000/svg" style="transform:none;transform-origin:50% 50%;cursor:move;max-height:none" width="100" height="100" viewBox="0 0 1000 1000"><g fill="#FFC000" style="transform:none"><path d="M170 738c0-7 13-62 28-123l28-110-28-105c-15-58-28-108-28-112 0-14 98-9 103 5 3 8 11 48 18 90s15 74 18 71 13-42 21-87l15-82 59-3c57-3 58-2 52 20-3 13-16 62-28 111l-23 87 29 108c16 59 31 115 34 125 4 16-2 18-59 15l-64-3-15-77c-8-42-18-79-21-82-3-4-12 27-19 66-18 101-16 98-71 98-33 0-49-4-49-12zM490 723c0-17 35-91 85-178 99-174 123-235 106-271-7-16-19-24-35-24-28 0-36 16-36 76v44h-60c-67 0-67 0-53-84 19-117 189-155 272-61 64 74 51 153-54 322l-73 118 79 3 79 3v79H490v-27z"/></g></svg>