<svg class="img-fluid" xmlns="http://www.w3.org/2000/svg" style="transform:none;transform-origin:50% 50%;cursor:move;max-height:none" width="100" height="100" viewBox="0 0 1000 1000"><path d="M399 911c-97-63-157-118-215-194C86 587 32 427 43 302 66 63 289-30 450 131l50 50 37-41c98-109 236-118 332-22 112 113 106 333-15 535-73 121-291 307-360 307-12 0-55-22-95-49zm191-107c128-99 222-231 264-373 21-72 20-126-5-181-26-57-44-77-93-102-37-19-40-19-78-2-45 20-98 76-128 134-18 34-25 40-53 40s-36-5-50-35c-24-51-91-119-136-140-39-17-40-17-82 6-54 30-97 98-105 165-7 60 33 189 87 281 42 69 155 186 229 235 63 41 61 41 150-28z" style="transform:none"/><path d="M430 874c-87-57-155-119-209-192-49-65-105-180-117-242-6-26-4-30 15-30 11 0 21 6 21 14 0 44 420 56 624 17 65-12 121-20 124-17 17 18-58 182-124 267-69 89-226 219-266 219-7 0-38-16-68-36z" fill="#971D1D" style="transform:none"/><path d="M240 489c-30-5-71-10-91-12-36-2-37-3-49-54-19-79-8-174 27-231 87-141 250-114 346 57l25 44 21-41c65-128 174-181 269-133 76 39 112 109 111 221s-1 111-110 133c-110 21-461 32-549 16z" fill="#AC2121" style="transform:none"/></svg>