<svg class="img-fluid" xmlns="http://www.w3.org/2000/svg" style="transform:none;transform-origin:50% 50%;cursor:move;max-height:none" width="100" height="100" viewBox="0 0 1000 1000"><g fill="#FFC000" style="transform:none"><path d="M599 751c-78-25-99-59-99-161v-70h130v80c0 79 0 80 25 80 31 0 39-27 33-116-4-71-14-84-60-84-26 0-28-3-28-40 0-39 1-40 34-40 46 0 58-18 54-87-3-54-5-58-28-58s-25 4-28 52l-3 53H500v-61c0-53 4-64 28-88 50-50 185-52 243-4 54 46 61 154 12 196l-23 21 27 22c26 21 28 28 31 111 3 97-11 141-59 175-28 21-120 32-160 19zM170 738c0-7 13-62 28-123l28-110-28-105c-15-58-28-108-28-112 0-14 98-9 103 5 3 8 11 48 18 90s15 74 18 71 13-42 21-87l15-82 59-3c57-3 58-2 52 20-3 13-16 62-28 111l-23 87 29 108c16 59 31 115 34 125 4 16-2 18-59 15l-64-3-15-77c-8-42-18-79-21-82-3-4-12 27-19 66-18 101-16 98-71 98-33 0-49-4-49-12z"/></g></svg>