<?xml version="1.0" encoding="UTF-8" standalone="no"?>
<svg
   xmlns:dc="http://purl.org/dc/elements/1.1/"
   xmlns:cc="http://creativecommons.org/ns#"
   xmlns:rdf="http://www.w3.org/1999/02/22-rdf-syntax-ns#"
   xmlns:svg="http://www.w3.org/2000/svg"
   xmlns="http://www.w3.org/2000/svg"
   xmlns:sodipodi="http://sodipodi.sourceforge.net/DTD/sodipodi-0.dtd"
   xmlns:inkscape="http://www.inkscape.org/namespaces/inkscape"
   class="img-fluid"
   style="transform:none;transform-origin:50% 50%;cursor:move"
   width="1346"
   height="194"
   viewBox="0 0 13460 1940"
   version="1.1"
   id="svg26"
   sodipodi:docname="image (1).svg"
   inkscape:version="1.0.1 (3bc2e813f5, 2020-09-07)">
  <metadata
     id="metadata32">
    <rdf:RDF>
      <cc:Work
         rdf:about="">
        <dc:format>image/svg+xml</dc:format>
        <dc:type
           rdf:resource="http://purl.org/dc/dcmitype/StillImage" />
        <dc:title></dc:title>
      </cc:Work>
    </rdf:RDF>
  </metadata>
  <defs
     id="defs30" />
  <sodipodi:namedview
     pagecolor="#ffffff"
     bordercolor="#666666"
     borderopacity="1"
     objecttolerance="10"
     gridtolerance="10"
     guidetolerance="10"
     inkscape:pageopacity="0"
     inkscape:pageshadow="2"
     inkscape:window-width="1920"
     inkscape:window-height="1017"
     id="namedview28"
     showgrid="false"
     inkscape:zoom="0.39413076"
     inkscape:cx="340.60916"
     inkscape:cy="417.72631"
     inkscape:window-x="-8"
     inkscape:window-y="-8"
     inkscape:window-maximized="1"
     inkscape:current-layer="svg26" />
  <g
     fill="#2C3251"
     style="transform:none"
     id="g6">
    <path
       d="m 1280,1841 v -99 l 163,-6 c 89,-4 183,-9 210,-12 45,-6 47,-7 47,-37 0,-56 91,-1501 95,-1514 3,-9 32,-13 96,-13 h 92 l -7,133 c -4,72 -11,195 -16,272 -5,77 -14,219 -20,315 -28,457 -29,467 -71,607 -21,72 -39,134 -39,137 0,2 12,6 28,8 23,3 36.7217,-3.1004 40.7217,31.8996 L 1924,1644 v 0 c 4,-18 -7,2 0,0 7,-3 104,4 215,16 111,11 206,18 211,15 4,-3 11,-22 15,-42 4,-21 16,-77 27,-125 l 20,-88 h 324 l 17,73 c 10,39 17,89 17,110 v 37 h -179 l -10,38 c -5,20 -17,75 -27,122 -22,110 -26,114 -89,106 -27,-3 -117,-13 -200,-21 -82,-8 -191,-20 -242,-25 -141,-15 -143,-15 -143,19 0,64 16,61 -306,61 h -294 z m 2560,93 c -44,-9 -213,-62 -275,-88 -38,-15 -66,-21 -80,-16 -11,4 -49,10 -85,14 -36,4 -148,18 -249,31 -101,14 -207,25 -235,25 h -52 l -18,-72 c -10,-40 -16,-91 -14,-113 l 3,-40 232,-30 c 127,-16 234,-33 237,-36 4,-3 -38,-161 -93,-350 -55,-189 -143,-493 -195,-675 -53,-183 -96,-346 -96,-363 v -32 l 66,3 66,3 39,135 c 22,74 75,259 119,410 43,151 104,361 135,465 56,188 57,191 50,283 l -6,93 33,14 c 18,9 40,19 48,24 42,25 282,93 370,105 89,13 305,-34 399,-86 156,-87 260,-225 296,-394 19,-89 19,-155 0,-227 -8,-32 -15,-69 -15,-82 0,-22 4,-25 39,-25 32,0 44,6 65,31 75,89 106,188 106,341 0,320 -147,531 -438,626 -68,22 -97,25 -252,27 -96,2 -186,1 -200,-1 z m 8743,-4 c -63,-13 -241,-74 -317,-109 -73,-33 -73,-34 -60,-135 7,-45 7,-46 44,-46 20,0 63,9 96,20 164,57 274,74 379,59 251,-34 428,-149 520,-334 61,-121 79,-257 50,-368 -8,-32 -15,-69 -15,-82 0,-22 4,-25 38,-25 43,0 61,15 111,94 l 31,50 v 477 l -37,75 c -68,140 -197,245 -371,302 -68,22 -98,25 -252,28 -96,1 -194,-1 -217,-6 z M 6003,1824 c 2,-58 7,-107 10,-110 2,-3 198,-9 433,-15 236,-5 434,-11 440,-13 7,-3 13,-65 17,-171 4,-92 9,-171 13,-176 7,-11 154,-12 172,0 11,6 11,49 2,232 -5,123 -13,249 -16,280 l -6,55 -487,12 c -267,7 -508,12 -535,12 h -49 z m 2010,84 c -21,-33 -63,-157 -63,-185 0,-38 -23,-30 240,-82 107,-21 194,-42 193,-47 -1,-6 -56,-106 -122,-224 -75,-132 -121,-224 -121,-241 0,-21 9,-34 38,-54 64,-43 149,-134 180,-193 64,-120 81,-290 42,-414 -11,-34 -20,-75 -20,-90 0,-25 4,-28 33,-28 40,0 69,28 121,115 45,75 46,114 6,222 -43,118 -57,232 -42,336 19,131 20,127 -58,201 -39,36 -75,66 -80,66 -6,0 -10,5 -10,10 0,6 54,107 120,225 98,174 120,221 120,254 0,38 -2,40 -37,47 -21,3 -139,26 -263,50 -245,48 -265,50 -277,32 z m 2850,5 -43,-4 v -82 c 0,-134 -14,-123 173,-130 618,-22 1002,-327 1043,-829 8,-99 -7,-204 -42,-302 -14,-39 -28,-88 -31,-109 -5,-37 -5,-37 29,-37 38,0 54,14 108,94 25,37 36,69 46,127 7,42 25,106 41,141 27,60 28,69 28,211 -1,95 -5,151 -12,155 -6,4 -15,44 -22,89 -24,181 -145,361 -325,482 -127,86 -276,144 -452,176 -88,16 -448,28 -541,18 z M 110,1803 v -110 l 107,-6 c 58,-4 153,-7 210,-7 H 530 V 960 h 40 c 28,0 40,4 40,15 0,8 23,94 50,192 l 50,178 v 272 c 0,149 -3,274 -7,276 -5,3 -140,8 -300,12 l -293,7 z m 7050,13 c 0,-52 3,-101 6,-110 5,-14 32,-16 194,-16 h 188 l 6,-187 c 4,-104 9,-214 12,-245 l 6,-58 h 98 c 84,0 99,3 105,18 27,66 55,160 55,185 0,28 -2,29 -40,25 -34,-3 -41,0 -45,17 -3,11 -8,119 -12,240 l -8,220 -282,3 -283,2 z m -2156,69 c -4,-9 -3,-58 1,-109 l 7,-94 46,-6 c 26,-3 108,-8 184,-12 l 136,-6 6,-57 c 4,-31 11,-117 17,-191 37,-485 69,-853 74,-859 4,-3 79,-9 168,-13 89,-3 165,-7 170,-7 4,-1 7,-61 7,-133 0,-73 3,-150 6,-171 l 7,-37 h 140 l -6,276 c -3,152 -8,278 -11,281 -3,3 -71,8 -152,11 -137,5 -146,6 -153,26 -5,12 -14,91 -20,176 -6,85 -16,207 -21,270 -5,63 -14,176 -20,250 -6,74 -15,191 -21,260 -5,69 -13,128 -17,131 -7,7 -396,29 -496,29 -33,0 -48,-5 -52,-15 z m 5136,-94 v -109 l 63,-6 c 34,-3 118,-9 187,-13 l 125,-8 22,-265 c 12,-146 31,-384 43,-530 37,-460 51,-625 56,-629 2,-2 38,-6 80,-9 l 76,-5 -7,339 c -3,189 -12,390 -20,454 -8,63 -27,281 -42,483 -15,202 -30,371 -33,376 -4,7 -395,31 -507,31 h -43 z m -932,89 c -198,-25 -378,-124 -492,-273 -41,-54 -56,-82 -56,-105 0,-29 3,-32 31,-32 22,0 52,15 98,49 199,147 405,181 633,105 297,-98 517,-434 494,-754 -6,-87 -31,-196 -60,-262 -9,-21 -16,-51 -16,-68 0,-28 3,-30 35,-30 30,0 40,7 74,53 57,75 111,194 121,268 5,35 10,155 10,266 0,224 -2,237 -70,378 -91,188 -266,334 -462,384 -88,23 -248,33 -340,21 z M 837,1783 c -13,-21 -47,-154 -47,-182 v -31 h 136 l 114,-350 114,-350 h 66 l -1,288 v 287 l -58,170 -58,170 -131,3 c -72,1 -133,-1 -135,-5 z"
       id="path2"
       sodipodi:nodetypes="ccccscsccsccsccccccccccccscccccccsscccccscscsccccscsccccccccccccccsscsccccccsccccssccccccccccccccccccscccscccscccssccccsscscccccsccccscccccccsccccsccssccsccccscsccccscsccccccscccccccccccsccccsccsssccscccccccccccccscsccccssccccssccsccccsccccccccccc" />
    <path
       d="M11240 1295c0-28 40-633 46-702l6-63h46c95 0 162 34 219 108 26 35 33 53 33 89v46l-60-6-59-7-5 33c-3 17-10 115-16 217-14 256-14 253-58 275-20 9-63 20-94 22-51 5-58 4-58-12zM3755 1236c-59-19-120-52-161-89-51-44-104-129-104-167 0-27 3-30 30-30 17 0 54 13 83 29 72 41 123 52 263 61 87 5 132 12 160 26 39 19 39 20 42 83 5 96-3 101-152 100-68 0-139-6-161-13zM12515 1236c-59-19-120-52-161-89-51-44-104-129-104-167 0-27 3-30 30-30 17 0 54 13 83 29 72 41 123 52 263 61 87 5 132 12 160 26 39 19 39 20 42 83 5 96-3 101-152 100-68 0-139-6-161-13zM6430 1139c0-151-17-138 184-141l171-3 9-102 9-103h187v43c0 23-5 117-11 209l-12 166-111 6c-61 3-182 9-268 12l-158 6v-93zM9027 1180c-50-44-79-119-85-217-11-199 67-301 239-311 99-6 153 13 204 69 42 47 55 77 55 126v36l-65-6c-103-10-171 24-222 111-25 43-28 55-26 135l2 87h-34c-24 0-45-9-68-30zM2460 1093c0-16 18-117 41-225l42-198h63l37 168c37 165 42 216 31 260-6 21-11 22-110 22h-104v-27zM7584 763c3-76 9-188 12-249l7-111 67-7c173-16 279 58 280 193v44l-52-7c-56-8-109-8-116-1-3 2-7 62-11 132-7 147-1 140-125 142l-69 1 7-137zM816 758C692 357 670 279 670 247v-37h59c33 0 62 4 66 9 15 25 155 500 155 527 0 17-7 51-16 77-15 43-18 47-49 47h-34l-35-112zM4660 700c0-80 3-112 13-114 6-3 69-7 140-10l127-6v227l-97 6c-54 4-117 7-140 7h-43V700zM4415 725c-130-33-207-40-272-24-42 10-77 10-149 2-126-13-148-29-152-106-4-66 13-87 86-108 74-21 288-15 396 10 49 12 90 20 91 19 1-2 8-77 16-168l14-165 40-3c22-2 57 2 78 9l37 12v258c0 141-3 264-6 273-9 22-68 19-179-9zM13258 745c-3-3-61-17-129-31-86-18-139-24-174-20-130 16-156 17-225 7-102-14-124-32-128-104-4-66 13-87 86-108 91-26 331-12 468 27 20 5 21 0 35-163l14-168 43-3c39-3 124 20 145 39 8 6-23 397-39 497-5 30-7 32-48 32-23 0-45-2-48-5zM6466 681c-7-11-1-114 10-172l5-26 242-12c158-9 245-17 249-25 4-6 8-34 8-62s3-85 6-127l7-77h140l-7 247c-4 136-9 250-12 252-2 2-147 7-323 9-235 3-320 2-325-7z"
       id="path4" />
  </g>
  <g
     fill="#D4D4D4"
     style="transform:none"
     id="g24">
    <path
       d="m1189 1335-1-440-116 353-116 352H745l-21-77c-12-43-49-173-83-290s-61-219-61-228c0-8-4-15-10-15s-10 127-10 360v360h-73c-41 0-163 3-272 7l-198 6 7-454c3-250 9-614 12-810l7-356 141-6c78-4 213-10 301-13l161-7 16 54c35 122 211 685 218 697 4 9 14-6 27-40 11-29 69-177 127-328 59-151 121-310 138-353l29-77h632l-6 93c-4 50-28 436-53 857-26 421-48 767-50 769-3 4-274 18-442 23l-92 3-1-440zM3775 1749c-106-18-299-82-396-133-24-12-26-12-22 5 6 21 22 18-294 59-304 39-287 40-301-12-6-24-21-82-33-130l-23-88h-264l-22 98c-39 176-36 169-67 165-59-7-442-45-506-50-56-5-67-8-62-22 2-9 27-90 54-181s56-185 64-210c9-25 79-259 157-520s153-511 167-556l24-81 277-13c152-7 299-14 326-14l49-1 17 60c47 160 213 730 311 1069 60 209 111 382 114 384 7 7 12-35 41-298 9-80 17-147 19-149 2-1 28 8 57 22 135 64 270 91 416 85 125-5 157-22 157-84 0-35-4-41-39-58-28-14-74-21-165-27-136-9-197-23-265-63-48-28-128-112-153-160-103-199-71-452 78-619 96-108 264-195 392-205 37-2 67-9 67-13 0-5 34-9 75-9 43 0 75 4 75 10s30 10 69 10c76 0 178 19 262 48 54 18 54 18 51 58-8 109-33 402-37 420-4 20-5 20-117-8-128-32-300-40-375-18-102 31-112 104-20 139 16 6 74 14 130 17 220 12 309 39 390 118 87 84 127 189 127 331-1 241-109 431-311 543-123 68-350 105-494 81zm-1115-664c0-5-79-364-83-379-2-5-20 72-41 170-20 98-40 187-42 197-5 15 4 17 80 17 47 0 86-2 86-5zM12535 1749c-113-19-375-110-412-143-9-9-8-41 2-141 8-71 19-177 25-235s13-106 15-108 16 5 32 15c35 24 118 57 203 80 47 13 102 18 202 18 123 0 139-2 165-21 22-17 28-29 28-60 0-35-4-41-39-58-28-14-74-21-165-27-189-12-267-43-356-141-210-233-146-617 133-801 91-60 192-99 275-105 37-2 67-9 67-13 0-5 34-9 75-9 43 0 75 4 75 10s30 10 69 10c76 0 174 18 261 48 55 19 55 19 52 58-8 112-34 402-37 421-5 20-6 21-52 7-146-45-351-60-440-34-102 31-112 104-20 139 15 6 90 15 166 20s164 17 197 26c114 32 218 130 260 245 24 67 29 229 10 320-44 211-192 372-400 439-144 46-275 60-391 40zM5914 1573c4-92 11-413 16-713 6-300 13-605 16-677l7-133h1080l-6 68c-4 37-9 131-13 209-4 77-9 146-13 151-3 6-114 16-248 23l-242 12-5 26c-3 14-6 46-8 71l-3 45 174 3 173 2-7 123c-4 67-10 149-14 182l-6 60-171 3c-197 3-184-5-184 110v62h123c103 0 358 10 364 14 1 1-4 114-10 251l-12 250-170 6c-93 4-322 10-509 13l-338 7 6-168zM7880 1612c-24-64-57-155-75-202-17-47-40-106-49-132l-18-48h-136l-6 58c-3 31-8 141-12 245l-6 187h-507l5-172c2-95 9-436 15-758 5-322 12-604 16-627 5-42 7-43 67-62 141-46 381-81 551-81 86 0 244 23 311 45 195 66 342 206 395 377 26 82 28 257 4 349-32 122-116 239-227 314l-36 24 139 247c76 136 138 249 136 250-1 1-110 23-242 48-132 26-249 48-261 51-19 4-26-8-64-113zm-158-753c176-38 248-168 179-323-34-78-110-115-222-108l-47 3-6 132c-4 73-9 171-12 220l-6 87h30c17 0 55-5 84-11z"
       id="path20" />
    <path
       d="m10772 1723-43-4 5-187c12-394 16-590 21-969 3-215 8-398 11-406 5-15 132-48 264-69 41-6 147-12 235-12 131 0 177 4 255 22 142 33 249 90 340 182 157 157 220 337 207 585-21 385-232 660-607 788-149 51-261 68-460 72-102 1-204 1-228-2zm608-478c94-48 177-166 200-286 13-67 4-179-20-235-37-85-113-146-198-160l-40-6-6 63c-3 35-13 177-21 314-8 138-17 272-20 298l-6 49 33-7c18-4 53-18 78-30zM4914 1299c4-225 4-475 0-555l-7-144-31 5c-17 2-94 6-170 7l-139 3 1-125c1-69 5-191 8-272l7-148h91c50 1 338-2 639-5l549-6-8 248c-3 136-8 250-10 252s-78 7-168 10-167 9-171 12c-3 4-19 170-36 370-16 200-36 447-44 548s-16 185-17 186c-4 4-395 25-452 25h-49l7-411zM10050 915V120h33c17 0 155-7 306-15s276-13 278-11c4 4-13 261-37 546-5 63-26 322-46 575s-39 463-43 466c-6 7-344 29-439 29h-52V915zM9095 1690c-342-45-611-344-632-702-14-232 64-443 222-603 121-123 230-181 396-211 152-28 341 1 495 77 99 48 175 115 241 211 87 126 121 232 129 408 21 421-247 764-641 820-79 11-124 11-210 0zm208-512c138-76 165-301 52-427-70-77-177-91-271-36-168 98-142 398 40 481 42 20 126 11 179-18z"
       id="path22" />
  </g>
</svg>
