<?xml version="1.0" encoding="UTF-8" standalone="no"?>
<svg
   xmlns:dc="http://purl.org/dc/elements/1.1/"
   xmlns:cc="http://creativecommons.org/ns#"
   xmlns:rdf="http://www.w3.org/1999/02/22-rdf-syntax-ns#"
   xmlns:svg="http://www.w3.org/2000/svg"
   xmlns="http://www.w3.org/2000/svg"
   xmlns:sodipodi="http://sodipodi.sourceforge.net/DTD/sodipodi-0.dtd"
   xmlns:inkscape="http://www.inkscape.org/namespaces/inkscape"
   class="img-fluid"
   style="transform:matrix(1.3,0,0,1.3,0,0);transform-origin:50% 50%;cursor:move;max-height:none;transition:transform 200ms ease-in-out 0s"
   width="512"
   height="512"
   viewBox="0 0 5120 5120"
   version="1.1"
   id="svg94"
   sodipodi:docname="player.svg"
   inkscape:version="1.0.1 (3bc2e813f5, 2020-09-07)">
  <metadata
     id="metadata100">
    <rdf:RDF>
      <cc:Work
         rdf:about="">
        <dc:format>image/svg+xml</dc:format>
        <dc:type
           rdf:resource="http://purl.org/dc/dcmitype/StillImage" />
        <dc:title></dc:title>
      </cc:Work>
    </rdf:RDF>
  </metadata>
  <defs
     id="defs98" />
  <sodipodi:namedview
     pagecolor="#ffffff"
     bordercolor="#666666"
     borderopacity="1"
     objecttolerance="10"
     gridtolerance="10"
     guidetolerance="10"
     inkscape:pageopacity="0"
     inkscape:pageshadow="2"
     inkscape:window-width="1920"
     inkscape:window-height="1017"
     id="namedview96"
     showgrid="false"
     inkscape:zoom="0.25377123"
     inkscape:cx="-176.98913"
     inkscape:cy="312.0045"
     inkscape:window-x="-8"
     inkscape:window-y="-8"
     inkscape:window-maximized="1"
     inkscape:current-layer="svg94"
     inkscape:document-rotation="0" />
  <g
     id="g6"
     style="transform:none">
    <path
       d="M1096 4461c-3-5-17-120-31-257-43-420-78-692-107-822-14-66-56-105-164-154-41-18-76-40-79-48-8-28-10-395-2-407 5-7 19-13 31-13 21 0 24-6 30-61 8-79 8-290-1-396-6-79-7-82-32-85-34-4-40-37-40-221-1-146 11-201 46-213 68-23 158-72 181-99 20-22 33-55 46-111 21-97 87-562 116-814 11-102 23-195 25-207 5-22 10-23 106-23 116 0 233 22 298 55 73 37 234 211 592 640 131 158 478 580 494 603 1 1 98 11 216 23 273 25 534 63 674 96 195 46 404 140 550 248 135 100 172 161 186 307 17 180-18 282-127 371-63 51-198 122-301 156-137 46-933 161-1114 161h-78l-279 328c-511 600-762 870-839 904-24 10-74 26-111 33-74 16-278 20-286 6zm161-145c53-44 73-96 73-194 0-46-7-117-16-158-18-88-101-311-203-541-39-89-75-173-81-187-8-22-15-26-52-26l-43 1 28 20c15 12 34 33 42 49 32 62 80 384 125 840 28 283 23 265 61 243 17-10 46-31 66-47zm181 49c68-29 311-288 732-780 117-137 235-276 262-307l49-57-663-3c-365-2-664-3-664-3-1 0 38 92 86 205 49 113 110 268 137 345l48 140v195c0 184-1 197-23 238-25 46-20 50 36 27zm1025-1258c-14-24-76-73-118-94-87-44-135-48-595-47-239 1-461 4-492 8-32 4-71 17-90 29-31 21-78 80-78 98 0 12 110 15 773 17 507 2 607 0 600-11zM906 2983c-4-71-11-132-15-136-5-5-32-7-62-5l-54 3 4 125c2 69 5 128 8 133 2 4 32 7 65 7h61l-7-127zm2089 13c606-130 916-204 1032-248 64-24 93-62 119-155 16-59 16-66 0-124-26-95-64-142-133-167-188-69-1346-353-1364-335-5 5-21 42-36 83-26 73-27 82-31 334-4 277 5 408 39 540 32 131 38 144 57 140 9-2 152-33 317-68zm554 14c64-11 141-26 171-34 53-14 154-55 137-56-9 0-435 99-452 105-27 10 40 3 144-15zm-2453-106c42-25 53-26 261-34 292-12 790-12 883 0 105 14 170 35 227 73l49 33-15-70c-11-55-15-154-15-447l-1-376-40 14c-59 21-475 35-961 31-396-3-411-4-456-25l-47-22-6 32c-3 18-6 52-7 77l-3 45-62 9-63 9v487h64c79 0 96 14 96 74 0 24 3 71 7 106l6 63 19-27c11-14 40-38 64-52zm-230-766c2-2 7-61 10-131l7-127h-50c-49 0-51 1-57 31-9 44-8 224 2 233 7 7 79 2 88-6zm2729-84c-52-20-227-61-285-68-25-3 32 15 125 39 176 45 229 54 160 29zm-1440-33c216-10 241-17 304-82l42-44-138-6c-76-4-407-7-735-8l-598-1v25c0 57 47 101 125 118 37 8 808 6 1000-2zm284-273c-186-235-641-775-791-938-127-139-158-164-233-185-47-14-186-36-193-30-1 1 31 92 73 203 109 293 118 332 113 472-4 97-10 128-36 199-53 141-114 227-201 283l-45 28 590 3c324 1 627 3 672 5l84 2-33-42zm-1352-93c88-59 146-145 193-290 40-121 33-166-72-463-22-62-42-111-44-109s-20 125-39 273c-36 276-77 534-94 592-5 17-6 32-3 32 4 0 30-16 59-35z"
       id="path2" />
    <path
       d="M2673 2951c-46-21-49-39-64-475-10-268-9-320 2-327 24-15 435-10 510 5 95 20 216 73 262 114 68 63 72 76 71 267 0 183-9 225-58 290-32 42-130 93-213 110-83 18-478 30-510 16zm456-121c110-27 184-87 208-170 21-71 21-193 0-242-20-47-79-90-176-127-92-35-196-51-342-51h-109v88c1 131 18 486 25 505 4 9 20 17 38 19 54 5 309-11 356-22zM1081 2696c-7-9-18-55-23-104-14-136 4-212 54-238 25-13 110-17 486-24 252-5 514-12 583-16s138-4 153 0c44 11 58 61 60 203 1 113-1 124-21 144-32 33-118 38-733 45-500 6-546 6-559-10zm1132-105c38-5 72-12 75-16 11-10 4-123-9-146-10-19-17-20-87-15-43 4-284 11-537 16-455 8-460 9-477 30-12 14-18 39-18 70 0 92-50 84 499 77 267-4 517-11 554-16z"
       id="path4" />
  </g>
  <g
     fill="#080808"
     id="g26"
     style="transform:none">
    <path
       d="M1250 4430c0-3 22-22 50-43 76-57 93-99 98-239 4-111 5-118 25-118 19 0 20 4 15 123-7 152-25 207-69 207-19 0-29 5-29 15 0 19 35 12 106-21 28-13 64-24 80-24l29 1-32 29c-18 16-57 36-86 45-60 17-187 35-187 25z"
       id="path8" />
    <path
       d="M1126 4388c-4-24-17-153-31-288-47-454-89-729-120-791-16-30-51-57-129-100l-51-29h255l10 26c6 14 42 98 81 187 144 326 219 548 219 647 0 23-4 30-20 30s-20-7-20-33c0-55-34-172-93-322-60-152-71-165-32-40 38 120 73 299 86 431 13 142 16 155 29 134 6-8 10-27 10-42 0-21 5-28 20-28 42 0 12 118-41 166-36 33-136 94-153 94-10 0-17-14-20-42zm-27-980c-28-62-57-130-66-150-13-32-20-38-44-38s-29 4-29 25c0 20 5 25 25 25 21 0 26 7 39 53 8 28 17 66 21 84 4 22 17 39 41 54 19 11 39 29 44 40 6 10 13 19 15 19s-19-51-46-112zM1660 4189c0-46 35-82 76-77l28 3-52 55-51 55-1-36zM1770 4067c0-40 15-57 52-57 25 0 28-4 28-33 0-40 15-57 52-57 25 0 28-4 28-33 0-39 15-57 46-57 18 0 23-6 26-32 2-28 8-34 31-36 22-3 27-8 27-31 0-31 16-51 41-51 12 0 19-9 21-27 2-22 9-29 30-31 22-3 27-9 30-35 2-26 8-33 30-35 22-3 27-9 30-35 2-24 8-33 26-35 15-2 22-10 22-26 0-26 18-46 41-46 12 0 19-9 21-27 2-17 12-32 26-38 12-5 22-17 22-25 0-21 20-40 42-40 13 0 18-8 18-25v-25h-135c-128 0-135-1-135-20s7-20 180-20c99 0 180 3 180 6 0 16-763 904-777 904-2 0-3-15-3-33zM1395 3973c-11-78-100-326-196-548-54-127-99-234-99-238 0-9 156-9 188-1 12 4 22 13 22 20 0 11-19 14-80 14-47 0-80 4-80 10s4 10 8 10c11 0 32 45 32 66 0 9 7 22 15 30 8 9 15 26 15 39s5 25 10 27c13 4 120 266 120 295 0 12 4 23 9 25 14 5 61 165 68 229 5 50 3 59-10 59-11 0-18-12-22-37zM1208 3143c-10-2-18-11-18-19 0-12 33-14 195-14 188 0 195 1 195 20s-6 20-177 19c-98-1-186-3-195-6zM2520 3128c0-20 1-21 20-3 11 10 20 20 20 22 0 1-9 3-20 3-14 0-20-7-20-22zM2675 3145c6-2 181-41 390-85 587-126 958-217 1039-256 28-14 27-11-13 26-86 79-257 159-404 190-198 41-868 131-966 129-31 0-51-2-46-4zm954-155c94-19 191-48 161-49-20 0-288 67-272 68 8 1 57-8 111-19zM757 3133c-16-15-6-33 18-33 18 0 25 5 25 20 0 20-28 28-43 13zM910 3105c0-40 24-49 34-12s7 47-14 47c-16 0-20-7-20-35zM986 3109c-8-43-8-89 2-89 4 0 13-13 19-30 9-23 18-30 37-30 21 0 26-5 26-25 0-16 6-25 15-25 8 0 15-4 15-10 0-5 16-10 35-10s35-4 35-10c0-5 23-10 50-10 36 0 50 4 50 14 0 15-30 26-76 26-40 0-116 49-142 92-12 19-26 58-33 86-12 59-24 66-33 21z"
       id="path10" />
    <path
       d="M1050 3128c0-32 23-90 47-118 35-42 72-59 143-67 55-5 60-4 60 14 0 17-9 21-62 26-34 3-64 10-66 16s-15 11-28 11c-19 0-24 5-24 25 0 14-4 25-9 25s-12 18-16 40c-5 30-11 40-26 40-10 0-19-6-19-12zM2559 3086c-31-36-64-170-75-304-6-71-5-82 9-82 17 0 21 16 33 125 3 33 19 111 35 174s28 115 27 116c-2 1-15-12-29-29zM2611 3030c-26-96-51-208-51-232 0-11 8-18 20-18 14 0 20 7 20 22 0 28 48 229 59 247 7 11 72 0 367-63 709-153 975-220 1043-264 34-22 43-36 63-99 17-53 28-73 41-73 22 0 21 14-2 88-26 86-52 117-115 141-115 43-460 125-1096 261-157 34-295 63-306 66-19 5-24-2-43-76zM2447 3093c-4-3-7-17-7-30 0-19-5-23-29-23-16 0-36-6-43-13-22-22-119-48-200-54-69-5-78-8-78-26s5-19 73-13c100 10 165 25 212 49 43 21 101 68 123 99 12 16 10 18-16 18-16 0-32-3-35-7zM900 2965c0-49 3-65 14-65 17 0 26 31 26 88 0 35-3 42-20 42-18 0-20-7-20-65zM745 2968c-3-18-5-60-3-93l3-60h90c85 0 90 1 93 22s1 21-72 16l-76-6v77c0 60-3 76-15 76-8 0-17-14-20-32zM2421 2965c-51-33-160-65-218-65-44 0-73-11-73-28 0-12 12-14 78-8 97 9 172 25 172 37 0 5 11 9 25 9 16 0 25 6 25 15s9 15 25 15c21 0 25 5 25 30 0 17-1 30-2 29-2-1-27-16-57-34zM1470 2956c0-19 32-26 123-26 70 0 77 2 77 20 0 19-7 20-100 20-78 0-100-3-100-14zM976 2938c-3-13-6-38-6-55 0-26 4-33 20-33 18 0 20 7 20 55 0 40-4 55-14 55-7 0-16-10-20-22z"
       id="path12" />
    <path
       d="M2670 2940c0-13-7-20-19-20-22 0-31-26-31-87 0-56 26-60 35-5 9 57 27 85 63 96 46 13 42 36-8 36-33 0-40-3-40-20zM2900 2946c0-17 31-26 88-26 35 0 42 3 42 20 0 18-7 20-65 20-49 0-65-3-65-14zM3070 2935c0-8 3-15 8-15 40-1 155-36 203-61 87-47 124-104 144-221 8-51 35-52 35-1 0 45-29 153-41 153-5 0-9 7-9 15 0 9-9 15-25 15-20 0-25 5-25 25 0 16-6 25-15 25-8 0-15 4-15 8 0 11-46 32-70 32-11 0-20 4-20 9 0 11-87 31-135 31-24 0-35-5-35-15zM1380 2880c0-19 7-20 90-20 70 0 90 3 90 14 0 18-32 26-112 26-61 0-68-2-68-20z"
       id="path14" />
    <path
       d="M2743 2883c-22-3-34-11-39-25-7-24-33-629-27-640 6-12 271-9 360 3 152 21 299 96 331 167 22 51 22 227-1 302-31 104-129 165-289 180-120 11-294 18-335 13zM966 2805c-4-15-16-27-31-31-36-9-32-34 6-34 39 0 59 20 59 59 0 38-25 42-34 6zM2556 2738c-3-13-6-65-6-115 0-86 1-93 20-93s20 7 20 115c0 91-3 115-14 115-7 0-16-10-20-22zM1069 2683c-5-15-13-70-16-123-6-104 8-180 32-180 8 0 15-6 15-14 0-17 22-26 61-26 40 0 37 23-6 39-51 18-68 57-66 157 1 94 13 134 41 141 35 9 24 33-15 33-29 0-37-5-46-27zM1860 2696c0-18 31-26 103-26 50 0 57 2 57 20s-7 20-80 20c-61 0-80-3-80-14zM2610 2635c0-57 3-75 14-75 17 0 26 31 26 98 0 45-3 52-20 52-18 0-20-7-20-75zM810 2500c0-193 1-200 20-200s20 7 20 200-1 200-20 200-20-7-20-200zM2150 2686c0-9 1-16 3-17 1 0 39-4 85-8 95-9 117-23 126-81 9-55 36-55 36-1 0 55-15 91-39 91-11 0-21 4-23 10-1 5-45 13-95 16-82 6-93 5-93-10z"
       id="path16" />
    <path
       d="M1136 2624c-11-29-6-44 14-44 16 0 20 7 20 30 0 32-23 42-34 14zM1790 2620c0-18 7-20 80-20 61 0 80 3 80 14 0 18-31 26-102 26-51 0-58-2-58-20zM2110 2610c0-18 7-20 60-20 44 0 60 4 60 14 0 16-30 26-82 26-31 0-38-4-38-20zM2250 2602c0-12 9-22 22-25 20-6 21-9 14-101-6-97 1-119 25-74 12 22 19 191 8 202-3 3-20 9-37 12-27 6-32 4-32-14zM3430 2530c0-53 2-60 20-60s20 7 20 60-2 60-20 60-20-7-20-60zM1126 2544c-9-36 2-84 20-84 10 0 14 14 14 55 0 40-4 55-14 55-8 0-17-12-20-26z"
       id="path18" />
    <path
       d="M2366 2508c-3-13-6-38-6-56 0-51-25-100-54-108-39-10-33-34 9-34 24 0 35 5 35 15 0 8 6 15 14 15 19 0 26 22 33 112 5 66 4 78-9 78-9 0-18-10-22-22zM4138 2450c-10-32-18-68-18-80s-7-20-18-20c-9 0-29-11-43-24-13-12-42-26-62-30s-37-11-37-16c0-6-11-10-24-10s-91-18-173-41c-81-22-287-74-458-114-603-144-650-154-658-142-15 24-57 169-57 198 0 23-4 29-21 29-20 0-21-4-16-52 4-29 21-95 39-146 25-73 35-92 47-87 9 4 158 39 331 80 627 147 937 226 1073 277 67 24 105 69 131 158 20 68 20 80-1 80-13 0-23-16-35-60z"
       id="path20" />
    <path
       d="M3424 2423c-9-51-26-82-66-120-52-50-193-108-310-128-52-8-52-35 0-35 71 0 302 77 302 101 0 5 6 9 13 9 16 0 57 42 57 58 0 7 5 12 10 12 6 0 10 14 10 30 0 17 5 30 10 30 6 0 10 18 10 40 0 53-26 55-36 3zM1140 2442c0-15 24-32 47-32 16 0 23 6 23 20 0 16-7 20-35 20-19 0-35-4-35-8zM1280 2426c0-18 31-26 103-26 50 0 57 2 57 20s-7 20-80 20c-61 0-80-3-80-14zM2600 2365c0-57 3-75 14-75 17 0 26 31 26 98 0 45-3 52-20 52-18 0-20-7-20-75zM1840 2416c0-19 32-26 128-26 75 0 82 2 82 20 0 19-7 20-105 20-83 0-105-3-105-14zM2130 2406c0-15 30-26 73-26 20 0 27 5 27 20 0 17-7 20-50 20-36 0-50-4-50-14zM1230 2350c0-18 7-20 65-20 49 0 65 3 65 14 0 17-31 26-87 26-36 0-43-3-43-20zM1720 2340c0-19 7-20 120-20 96 0 120 3 120 14 0 20-32 26-142 26-91 0-98-1-98-20zM2550 2295c0-58 2-65 20-65s20 7 20 65-2 65-20 65-20-7-20-65zM2100 2330c0-17 7-20 50-20 36 0 50 4 50 14 0 15-30 26-72 26-21 0-28-5-28-20zM840 2236c0-14 29-26 67-26 12 0 27-8 32-17 8-15 10-11 11 20v37h-55c-40 0-55-4-55-14zM2610 2175c0-33 2-35 35-35 41 0 49 24 10 34-14 4-25 13-25 21s-4 15-10 15c-5 0-10-16-10-35zM3900 2184c-88-28-562-146-940-234-146-34-267-65-270-67-9-10 330 24 530 53 317 46 521 114 725 242 59 37 54 38-45 6zM747 2173c-4-3-7-26-7-50 0-36 3-43 20-43 16 0 20 7 20 30v30h60c44 0 60 4 60 14 0 7-10 16-22 20-31 8-123 8-131-1zM944 2113c3-32 6-89 7-128 1-58 2-64 8-33 16 76 65 119 158 138 61 13 75 40 20 40-43 0-137-28-137-40 0-6-4-10-10-10-5 0-10 20-10 45 0 39-3 45-21 45-20 0-21-4-15-57zM2750 2150c0-19 7-20 100-20s100 1 100 20-7 20-100 20-100-1-100-20zM2480 2120c0-36-13-55-22-30-3 11-94 30-144 30-22 0-34-5-34-14 0-15 29-26 69-26 48 0 104-25 151-67 26-24 50-43 54-43 3 0-1 17-8 38-8 21-19 64-26 95-14 69-40 80-40 17zM1980 2116c0-19 32-26 123-26 70 0 77 2 77 20 0 19-7 20-100 20-78 0-100-3-100-14zM870 2020c0-73 2-80 20-80s20 7 20 58c0 71-8 102-26 102-11 0-14-19-14-80z"
       id="path22" />
    <path
       d="M1125 2053c-11-2-37-11-58-20-56-24-92-103-47-103 13 0 20 7 20 19 0 10 7 21 15 25 8 3 15 12 15 20 0 10 18 16 65 21 55 6 65 10 65 26 0 19-25 23-75 12zM1850 2040c0-19 7-20 120-20 96 0 120 3 120 14 0 20-32 26-142 26-91 0-98-1-98-20zM2260 2030c0-16 7-20 37-20 53 0 141-32 147-52 2-11 14-18 30-18 19 0 26-5 26-20 0-11-7-20-15-20s-15-9-15-20c0-16 7-20 38-20 64 0 67 11 16 71-64 74-100 98-170 109-84 14-94 13-94-10zM744 1899c3-17 6-35 6-40s36-9 80-9c73 0 80 2 80 20s-7 20-59 20c-51 0-61 3-66 20-4 11-15 20-27 20-18 0-20-4-14-31zM1000 1891c0-5-3-16-6-25-4-12 0-16 15-16 16 0 21 6 21 25 0 16-6 25-15 25-8 0-15-4-15-9zM2150 1870c0-18 7-20 63-20 76 0 107 8 107 26 0 11-19 14-85 14-78 0-85-2-85-20zM2528 1822c-10-2-18-7-18-12s-10-10-22-12c-15-2-24-11-26-24-2-12-12-24-23-27s-19-14-19-25-9-22-20-25c-13-3-20-14-20-30 0-19-6-26-22-29-15-2-24-11-26-24-2-12-12-24-23-27-12-3-19-14-19-30 0-19-6-26-22-29-14-2-24-11-26-23-2-11-13-25-25-30-12-6-23-20-25-31-2-12-12-24-23-27-12-3-19-14-19-30 0-19-6-26-22-29-16-2-24-11-26-30s-10-28-25-30-23-11-25-30-10-28-25-30-23-11-25-30-10-28-25-30c-16-2-23-11-25-30s-9-28-21-28c-23 0-41-20-41-46 0-16-7-24-22-26-18-2-24-11-26-35-3-27-8-33-26-33-30 0-46-18-46-52 0-23-4-28-24-28-32 0-48-22-44-61 3-32 5-30 124 107 225 260 730 873 723 878-2 1-12 1-21-2zM2258 1813c-10-2-18-11-18-19 0-11 18-14 85-14 78 0 85 2 85 20s-6 20-67 19c-38-1-76-3-85-6zM1048 1770c45-21 96-49 112-60l30-21v30c0 21-5 31-15 31-8 0-15 4-15 8 0 19-92 52-143 52l-52-1 83-39zM1430 1790c0-18 7-20 80-20s80 2 80 20-7 20-80 20-80-2-80-20zM918 1744c33-22 59-48 67-68 29-70 85-416 136-849 12-103 26-184 30-180 9 10 106 274 150 408 55 169 44 295-41 465-56 110-147 186-286 236-99 36-120 32-56-12zm265-897-18-50-12 84c-18 134-16 142 18 76l30-59-18-51zM1269 1590c40-61 93-194 105-262 5-25 12-38 23-38 13 0 15 8 10 52-8 62-45 178-58 178-5 0-9 11-9 24 0 14-7 31-15 40-8 8-15 19-15 25s-4 11-10 11c-5 0-10 7-10 15 0 10-10 15-30 15h-30l39-60zM1370 1138c-13-54-111-333-174-490l-34-88h46c61 0 92 9 92 26 0 10-13 14-40 14-29 0-40 4-40 15 0 8 4 15 8 15 10 0 42 87 42 113 0 9 4 17 10 17 5 0 12 17 16 38 4 20 10 39 15 42 4 3 14 28 21 55 7 28 15 52 19 55 11 9 29 72 29 101 0 15 5 29 10 31 6 2 13 27 17 56 5 43 3 52-10 52-10 0-19-17-27-52zM1607 772c-15-15-27-38-27-50 0-16-6-22-23-22-24 0-57-27-57-47 0-6-15-13-32-16-111-17-158-32-158-49 0-22 16-22 98-3 89 21 128 44 198 117 90 94 92 98 57 98-19 0-39-10-56-28z"
       id="path24" />
  </g>
  <g
     fill="#101010"
     id="g38"
     style="transform:none;fill:#181818;fill-opacity:1">
    <path
       d="M1280 4406c19-13 40-22 45-20 6 3 33-2 60-11 28-8 62-15 77-15 20 0 27-6 30-22 2-19 10-24 43-26l39-3-19 21c-48 53-176 99-275 100h-34l34-24zM1270 4331c0-57-32-321-50-408-28-135-88-341-112-380-10-18-34-41-53-53-29-18-35-29-50-96-19-87-50-130-129-175l-51-29h221l64 143c94 213 198 478 222 565 15 58 21 110 22 212 1 146-5 170-58 219l-26 24v-22zM1620 4229c0-44 27-72 66-67l27 3-46 50-46 50-1-36zM1400 4223c0-34 12-63 26-63 10 0 14 13 14 40 0 33-3 40-20 40-12 0-20-7-20-17zM1750 4087c0-40 12-51 50-45 20 3 20 5-14 43l-35 40-1-38zM1406 4068c-12-45-7-68 14-68 17 0 20 7 20 45 0 49-23 64-34 23zM1830 3997c0-40 12-51 50-45 20 3 20 5-14 43l-35 40-1-38zM1390 3933c-7-32-30-106-51-165l-38-108h24c20 0 25 7 31 38 4 20 10 39 14 42 12 8 50 138 56 196 6 45 4 54-9 54-11 0-19-17-27-57zM1912 3903c3-35 6-38 35-41s32-7 35-40c3-34 6-37 36-40 29-3 32-6 32-38 0-29 3-34 24-34s25-6 28-32c2-27 8-34 30-36 22-3 27-9 30-35 2-26 8-33 30-35 22-3 27-9 30-35 2-24 8-33 25-35 15-2 23-11 25-30 2-21 9-28 30-30 22-3 27-9 30-35 2-27 8-33 31-35 23-3 27-8 27-33 0-24 4-29 24-29 21 0 25-6 28-32 2-25 8-34 26-36 14-2 22-10 22-23 0-14 7-19 25-19 40 0 85-58-364 468-128 149-235 272-238 272-2 0-3-17-1-37zM1290 3628c-5-13-48-111-94-218-79-181-83-195-64-198 26-5 38 13 38 56 0 21 5 32 14 32 14 0 26 21 26 47 0 8 7 21 15 29 8 9 15 31 15 50 0 24 5 34 15 34s15 11 15 35 5 35 15 35c9 0 15 9 15 25 0 14 5 25 10 25 6 0 10 16 10 35 0 40-16 46-30 13zM1860 3210c0-19 7-20 173-20 184 0 217 4 217 26 0 11-36 14-195 14-188 0-195-1-195-20zM1538 3143c-10-2-18-11-18-19 0-12 29-14 170-14 163 0 170 1 170 20s-6 20-152 19c-84-1-161-3-170-6zM2500 3118v-31l25 23c14 13 25 27 25 32 0 4-11 8-25 8-21 0-25-5-25-32zM2840 3115c85-19 290-64 455-100 337-74 660-154 749-184 33-12 61-19 63-17 8 7-136 97-210 131-98 45-190 69-377 99-199 32-663 93-760 100-69 5-62 3 80-29zM763 3133c-8-3-13-23-13-49 0-37 3-44 20-44 16 0 20 7 20 30v30h75c68 0 75 2 75 20s-6 20-82 19c-46 0-89-3-95-6zM1061 3095c10-52 31-88 68-114 46-32 61-33 61-6 0 16-6 25-15 25-8 0-15 5-15 10 0 6-7 10-15 10s-15 7-15 15-4 15-9 15c-4 0-14 20-21 45-9 31-18 45-30 45-15 0-16-6-9-45zM990 3103c0-10-3-42-6-70-6-49-5-53 15-53 12 0 21 6 21 15 0 8 4 15 9 15 4 0 1 25-7 55-15 53-32 73-32 38zM2516 3041c-39-39-91-80-122-95-62-31-69-46-19-46 19 0 35 4 35 9s14 11 30 15c21 4 30 11 30 26 0 13 7 20 20 20 11 0 20-1 20-2 0-2-7-39-15-83-19-105-19-145 0-145 9 0 16 14 20 38 19 118 30 176 51 250 12 45 21 82 20 82s-32-31-70-69zM2628 3081c-16-43-56-215-63-275-7-53-6-56 14-56 17 0 21 6 22 38 1 20 5 48 9 62 8 24 8 24 9 3 1-33 28-28 36 7 4 16 20 41 36 54 38 32 37 38-8 34-31-2-39-7-41-25-2-13-8-23-13-23-6 0-8 8-5 18 2 9 12 45 22 80 13 49 21 63 33 59 9-2 122-26 251-53 142-30 222-50 203-52-51-5-41-29 19-41 79-17 173-67 211-112 47-55 69-138 70-264 0-142-30-218-103-262-39-23-38-33 5-33 32 0 35 2 35 30 0 27 3 30 30 30 23 0 30 5 30 19 0 11 4 21 10 23 42 14 31 428-11 428-5 0-9 9-9 20s-7 20-15 20-15 9-15 20c0 13-7 20-20 20-11 0-20 7-20 15s-7 15-15 15-15 5-15 10c0 6-11 10-25 10s-25 4-25 10c0 5-11 12-25 16s-24 8-22 11c3 2 95-17 205-42 216-49 252-53 252-31 0 16-19 21-485 121-170 37-365 80-433 95l-124 27-10-26zM900 3025c0-40 4-55 14-55 16 0 26 30 26 78 0 25-4 32-20 32-18 0-20-7-20-55zM2390 3035c0-9-9-15-25-15-14 0-25-4-25-9 0-4-34-14-75-22-62-11-75-16-75-32s5-17 48-11c64 9 128 31 173 60 53 33 57 44 15 44-25 0-36-4-36-15zM1240 2966c0-15 30-26 73-26 20 0 27 5 27 20 0 17-7 20-50 20-36 0-50-4-50-14zM1610 2956c0-22 34-26 270-26s270 4 270 26c0 12-47 14-270 14s-270-2-270-14zM1080 2931c0-24 4-31 19-31 11 0 21-5 23-11s27-14 56-17c42-4 52-2 52 11 0 9-17 19-47 26-26 7-59 21-75 32l-28 20v-30z"
       id="path28"
       style="fill:#181818;fill-opacity:1" />
    <path
       d="M2970 2946c0-15 30-26 73-26 20 0 27 5 27 20 0 17-7 20-50 20-36 0-50-4-50-14zM890 2864c0-38 3-45 18-42 12 2 18 15 20 46 3 37 1 42-17 42s-21-6-21-46zM976 2888c-12-45-7-68 14-68 17 0 20 7 20 45 0 49-23 64-34 23zM2250 2903c-81-12-90-15-90-28 0-17 18-18 98-9 42 6 52 10 52 25 0 19-7 21-60 12zM1320 2880c0-18 7-20 60-20 44 0 60 4 60 14 0 16-30 26-82 26-31 0-38-4-38-20zM3740 2841c0-19 34-31 86-31 41 0 27 27-20 39-60 15-66 14-66-8zM3890 2800c0-16 7-20 35-20 19 0 35-4 35-8 0-11 69-32 104-32 50 0 22 24-60 52-97 33-114 34-114 8zM810 2728c0-57 9-88 26-88 11 0 14 16 14 65 0 58-2 65-20 65-17 0-20-7-20-42zM2610 2710c0-44 4-60 14-60 16 0 26 30 26 83 0 30-4 37-20 37-18 0-20-7-20-60zM4100 2718c0-34 3-38 25-38 31 0 32 11 0 47l-24 28-1-37zM1100 2700c0-13-7-20-19-20-19 0-31-39-31-107 0-48 27-44 35 5 15 96 16 97 73 100 44 3 52 6 52 23 0 16-7 19-55 19s-55-2-55-20zM1340 2700c0-19 7-20 160-20s160 1 160 20-7 20-160 20-160-1-160-20zM1960 2696c0-17 31-26 88-26 35 0 42 3 42 20 0 18-7 20-65 20-49 0-65-3-65-14zM2210 2688c0-16 28-28 68-28s80-27 87-60c9-43 35-39 35 5 0 24-5 35-15 35-8 0-15 9-15 19 0 23-14 29-95 37-54 6-65 4-65-8z"
       id="path30"
       style="fill:#181818;fill-opacity:1" />
    <path
       d="M1136 2618c-10-38-7-48 14-48 16 0 20 7 20 35 0 40-24 49-34 13zM1180 2620c0-16 7-20 35-20s35 4 35 20-7 20-35 20-35-4-35-20zM1690 2620c0-18 7-20 80-20 61 0 80 3 80 14 0 18-31 26-102 26-51 0-58-2-58-20zM2060 2610c0-18 7-20 55-20 40 0 55 4 55 14 0 16-30 26-77 26-26 0-33-4-33-20zM2240 2600c0-16 7-20 35-20 40 0 49 24 13 34-38 10-48 7-48-14zM4150 2570c0-33 3-40 20-40 21 0 25 16 14 58-11 39-34 27-34-18zM2556 2568c-3-13-6-68-6-123 0-113 6-145 26-145 11 0 14 28 14 145s-3 145-14 145c-7 0-16-10-20-22zM2600 2450c0-53 3-70 14-70 17 0 26 31 26 93 0 40-3 47-20 47-18 0-20-7-20-70zM4150 2485c0-40 24-49 34-12s7 47-14 47c-16 0-20-7-20-35zM1050 2465c0-28 4-35 20-35 21 0 24 10 14 48-10 36-34 27-34-13zM1130 2472c0-29 22-51 58-58 28-6 32-4 32 15 0 14-6 21-19 21-11 0-23 9-26 20-8 25-45 27-45 2zM2366 2458c-11-42-7-58 14-58 17 0 20 7 20 40 0 45-23 57-34 18zM2280 2440c0-18-7-20-55-20-40 0-55-4-55-14 0-17 31-26 88-26 36 0 44 4 52 26 15 38 12 54-10 54-13 0-20-7-20-20zM1380 2426c0-18 32-26 113-26 60 0 67 2 67 20 0 19-7 20-90 20-70 0-90-3-90-14zM1990 2416c0-16 30-26 83-26 30 0 37 4 37 20 0 18-7 20-60 20-44 0-60-4-60-14zM4120 2400c0-11-4-20-10-20-5 0-10-17-10-37 0-37 0-37 20-18 10 11 26 37 35 58l15 37h-25c-18 0-25-5-25-20zM2337 2365c-15-21-26-25-67-25-43 0-50-3-50-20s7-20 50-20c28 0 50 5 50 10 0 6 11 10 25 10 22 0 25 4 25 35 0 41-8 44-33 10zM1170 2350c0-18 7-20 60-20 44 0 60 4 60 14 0 16-30 26-82 26-31 0-38-4-38-20zM816 2338c-3-13-6-44-6-70 0-41 3-48 20-48 18 0 20 7 20 70 0 53-3 70-14 70-7 0-16-10-20-22zM1570 2340c0-19 7-20 105-20 83 0 105 3 105 14 0 19-32 26-127 26-76 0-83-2-83-20zM2070 2330c0-17 7-20 45-20 49 0 64 23 23 34-45 12-68 7-68-14zM3970 2293c-25-9-46-20-48-24-2-5-19-9-38-9s-34-4-34-10c0-5-11-10-24-10-37 0-126-22-126-32 0-4-11-8-24-8s-138-27-277-61c-140-33-360-85-489-115s-242-57-250-59c-11-4-18 8-27 43-7 26-19 67-26 92l-15 45 39-3c30-3 39 0 39 11 0 8-9 17-20 20-15 4-20 14-20 36 0 24-4 31-20 31-15 0-20 7-20 25 0 36-27 32-35-6-4-16-4-58 0-92 7-64 62-247 74-247 10 0 724 168 931 219 195 48 437 115 486 136 77 32 10 48-76 18zM890 2236c0-7 9-16 20-19 22-6 25-13 35-69 9-56 35-51 35 6 0 73-13 96-55 96-23 0-35-5-35-14z"
       id="path32"
       style="fill:#181818;fill-opacity:1" />
    <path
       d="M3205 2215c-33-13-84-29-112-35-37-8-53-16-53-27 0-13 9-15 52-10 28 4 80 16 115 28 54 18 63 24 63 45 0 13-1 24-2 23-2 0-30-11-63-24zM3790 2149c-74-21-317-82-540-135-595-141-587-138-272-103 227 25 444 61 572 94 87 23 283 110 370 163 47 29 29 27-130-19zM746 2128c-3-29-6-74-6-100 0-41 3-48 20-48 18 0 20 7 20 80v80h30c36 0 41 25 8 34-57 15-65 9-72-46zM860 2140c0-23 4-30 20-30s20 7 20 30-4 30-20 30-20-7-20-30zM2680 2150c0-18 7-20 65-20 49 0 65 3 65 14 0 17-31 26-87 26-36 0-43-3-43-20zM2908 2163c-10-2-18-11-18-19 0-11 15-14 65-14 58 0 65 2 65 20 0 17-6 20-47 19-27-1-56-3-65-6zM2480 2116c0-23 0-23-52-10-70 19-118 18-118-1 0-9 14-16 38-20 75-13 107-29 161-79 31-29 51-42 46-31-4 11-17 53-28 93-20 70-47 99-47 48zM1063 2123c-13-2-23-11-23-19 0-9-11-14-30-14-20 0-30-5-30-15 0-8-7-15-15-15-11 0-15-12-15-52v-53l21 42c24 48 63 76 132 93 84 22 49 50-40 33zM2120 2116c0-17 31-26 93-26 40 0 47 3 47 20 0 18-7 20-70 20-53 0-70-3-70-14zM1160 2055c-8-2-32-6-52-10-67-11-140-95-82-95 16 0 24 6 24 18 0 23 89 52 158 52 45 0 52 3 52 20s-6 20-42 19c-24-1-50-3-58-4zM1610 2040c0-19 7-20 150-20 121 0 150 3 150 14 0 21-33 26-172 26-121 0-128-1-128-20zM2230 2030c0-17 7-20 45-20 49 0 64 23 23 34-45 12-68 7-68-14zM2340 2020c0-16 7-20 35-20 40 0 49 24 13 34-38 10-48 7-48-14zM870 1930c0-63 2-70 20-70 17 0 20 7 20 48 0 61-9 92-26 92-11 0-14-17-14-70zM740 1943c0-35 21-93 35-93 5 0 20 3 33 6 27 8 29 34 2 34-15 0-21 9-26 40-5 30-11 40-25 40s-19-7-19-27zM2490 1933c0-30-3-33-30-33-23 0-30-4-30-20 0-22 19-24 97-12l42 7-39 45-39 45-1-32zM2010 1870c0-18 7-20 78-20 90 0 122 7 122 26 0 11-22 14-100 14-93 0-100-1-100-20zM2368 1813c-10-2-18-11-18-19 0-10 13-14 50-14 46 0 50-2 50-24 0-18-6-25-22-28-15-2-24-11-26-24-2-12-12-24-23-27-13-3-19-14-19-31 0-19-5-26-20-26s-20-7-20-24c0-18-6-25-22-28-16-2-24-11-26-30s-10-28-25-30c-16-2-23-11-25-30-2-20-9-28-23-28-13 0-19-7-19-24 0-18-6-25-22-28-16-2-24-11-26-30s-10-28-25-30c-16-2-23-11-25-30-2-20-9-28-23-28s-19-7-19-30c0-25-4-30-25-30s-25-5-25-30-4-30-25-30c-22 0-25-4-25-35 0-32-2-35-30-35-27 0-30-3-30-29 0-25-4-30-27-33-24-3-28-8-31-40-3-33-6-37-35-40s-32-6-35-41c-3-34-6-37-33-37-33 0-42-14-37-55 3-25 10-19 93 77 186 212 765 911 765 923 0 3-11 5-24 5-18 0-26-7-29-22l-4-23-2 23c-1 20-6 22-48 21-27-1-56-3-65-6zM1057 1770c87-41 165-105 214-177 35-50 84-171 100-242 12-59 39-72 39-19 0 41-30 148-41 148-5 0-9 9-9 19 0 30-11 51-26 51-9 0-14 11-14 30 0 17-4 30-10 30-5 0-10 7-10 15s-7 15-15 15-15 8-15 17c0 23-49 73-72 73-10 0-18 6-18 14s-12 17-27 19c-16 2 176 5 425 6 442 1 452 1 452 21 0 19-10 19-527 19H975l82-39z"
       id="path34"
       style="fill:#181818;fill-opacity:1" />
    <path
       d="M920 1748c64-49 77-73 99-183 24-119 82-516 107-738 10-86 21-157 25-157s26 52 50 115l42 115-46 98c-56 117-81 192-108 320-29 131-33 222-16 310l14 73-28 14c-37 20-118 51-153 59-27 7-26 5 14-26zM1367 1120c-21-75-21-80 2-80 14 0 22 12 30 44 26 105-4 138-32 36zM1314 955c-7-19-14-37-14-39 0-3-30-82-66-177-36-94-63-173-61-176 3-3 19-2 36 2 30 6 31 8 25 46-4 26-3 39 5 39 6 0 11 11 11 25s4 25 10 25c5 0 13 18 16 40 4 22 10 40 15 40s12 18 15 40c4 22 10 40 14 40s12 17 18 39c25 81 6 126-24 56zM1557 722c-10-10-17-28-17-40 0-18-6-22-29-22-16 0-36-6-43-13s-48-20-91-27c-63-12-77-17-77-33s5-17 48-11c119 17 222 72 268 142 14 21 13 22-14 22-16 0-36-8-45-18z"
       id="path36"
       style="fill:#181818;fill-opacity:1" />
  </g>
  <g
     fill="#191919"
     id="g50"
     style="transform:none">
    <path
       d="M1270 4426c0-3 21-25 46-48 53-49 70-78 85-148 7-34 16-50 26-50 13 0 15 9 10 53-9 70-26 117-43 117-8 0-14 7-14 15s7 15 15 15c24 0 17 27-7 33-46 11-118 19-118 13zM1440 4376c0-24 17-36 51-36 12 0 19-7 19-18 0-10 24-42 54-71 44-43 58-52 82-49 28 3 27 5-57 89-48 48-101 91-118 97-29 10-31 9-31-12zM1720 4119c0-43 18-62 56-57l26 3-40 45-41 45-1-36zM1406 4038c-10-38-7-48 14-48 16 0 20 7 20 35 0 40-24 49-34 13zM1810 4017c0-40 12-51 50-45 20 3 20 5-14 43l-35 40-1-38z"
       id="path40" />
    <path
       d="M1391 3930c-14-67-14-70 8-70 18 0 31 39 31 98 0 44-28 23-39-28zM1892 3925c3-37 5-40 35-43 29-3 32-7 35-40 3-34 6-37 35-40s32-7 35-40c3-32 7-37 31-40 23-3 27-8 27-33 0-22 5-29 20-29 14 0 20-7 20-23 0-28 17-47 42-47 12 0 18-8 18-23 0-27 17-47 41-47 12 0 19-9 21-27 2-22 9-29 30-31 22-3 27-9 30-35 2-24 8-33 26-35 15-2 22-10 22-26 0-26 18-46 41-46 12 0 19-9 21-27 2-20 9-29 26-31 16-3 22-10 22-28 0-27 16-37 50-32 19 3-3 33-156 213-193 228-381 447-438 510l-36 40 2-40zM1346 3771c-3-4-10-20-15-35-10-24-8-26 14-26s25 4 25 35c0 33-12 46-24 26zM1310 3678c-52-129-145-349-174-410l-35-78h25c20 0 24 5 24 30 0 19 5 30 14 30 17 0 26 22 26 61 0 18 5 29 14 29 14 0 26 21 26 47 0 8 7 21 15 29 8 9 15 24 15 35s7 27 15 35c8 9 15 24 15 35s7 27 15 35c8 9 15 29 15 45s5 29 10 29c6 0 10 16 10 35 0 40-16 46-30 13zM1590 3210c0-19 7-20 143-20 154 0 187 5 187 26 0 11-31 14-165 14-158 0-165-1-165-20zM1818 3143c-10-2-18-11-18-19 0-11 27-14 150-14 143 0 150 1 150 20s-6 20-132 19c-73-1-141-3-150-6zM2487 3143c-4-3-7-21-7-40 0-31-2-33-35-33-38 0-49-13-43-51 3-20 7-18 55 26 29 25 62 60 74 76l20 29h-29c-16 0-32-3-35-7zM844 3133l-81-4-7-46c-3-25-6-95-6-154v-109h168l6 63c13 149 17 257 9 255-4-1-45-4-89-5zM990 3076c0-18-3-54-6-80-6-44-6-46 18-46 14 0 31-7 38-15s28-15 48-15h35l-46 49c-31 33-50 64-58 95-13 54-29 60-29 12zM2552 3070c-25-33-29-70-8-70 12 0 42 87 33 96-2 2-13-10-25-26zM2601 2969c-20-82-35-171-38-235-6-102-6-104 15-104s22-5 22-85c0-66 3-85 14-85 19 0 26 32 26 128 0 75-2 82-20 82s-20 6-18 63c1 49 2 53 5 20 3-27 9-43 17-43 17 0 26 32 26 98 0 57 19 106 45 116 9 3 82 6 161 6 137 0 144 1 144 20s-7 20-154 20c-85 0-167-5-181-10-22-9-26-8-22 4 3 8 9 31 13 50 3 20 11 36 17 36 5 0 100-19 211-42 142-30 190-44 164-46-24-2-38-8-38-17 0-14 18-19 120-30 61-7 138-36 192-74 64-45 92-102 113-233 4-26 11-38 22-38 14 0 15 10 10 73-10 129-48 195-147 256-29 18-31 21-10 16 14-3 75-16 137-30 129-29 173-32 173-11 0 10-30 21-92 36-144 33-872 190-884 190-6 0-26-59-43-131zM1094 3018c17-27 84-68 110-68 9 0 16 8 16 20 0 16-7 20-34 20-28 0-35 4-38 23-2 17-11 23-36 25-33 3-33 3-18-20zM2462 2985c-47-36-123-69-188-80-84-14-94-17-94-31 0-9 11-14 33-14 48 0 171 28 175 40 2 6 15 10 28 10 17 0 24 6 24 20 0 16 7 20 30 20 32 0 44 15 38 49-3 19-6 18-46-14zM2208 2983c-30-3-38-8-38-25 0-19 4-20 48-13 75 10 92 16 92 31 0 14-19 15-102 7zM1280 2966c0-16 30-26 78-26 25 0 32 4 32 20 0 18-7 20-55 20-40 0-55-4-55-14zM2491 2881c-15-94-14-121 4-121 9 0 16 14 20 38 4 20 11 59 16 85 12 64 12 67-10 67-15 0-20-13-30-69zM1140 2894c0-21 5-24 35-24 22 0 35 5 35 13s-16 18-35 24c-33 11-35 10-35-13zM1270 2880c0-18 7-20 55-20 40 0 55 4 55 14 0 16-30 26-77 26-26 0-33-4-33-20zM1730 2870c0-19 7-20 170-20s170 1 170 20-7 20-170 20-170-1-170-20z"
       id="path42" />
    <path
       d="M975 2843c-10-64-15-68-95-71-69-3-72-4-66-25 3-12 6-25 6-29 0-11 30-10 30 1 0 4 30 11 67 14 37 4 71 11 76 16s11 36 14 70c5 51 3 61-10 61-11 0-18-12-22-37zM3650 2862c0-15 21-23 113-45 61-15 122-27 135-27 12 0 22-4 22-10 0-5 16-10 35-10 24 0 35 5 35 15 0 8-2 15-5 15-2 0-73 18-157 40s-159 40-165 40c-7 0-13-8-13-18zM4040 2755c0-22 4-25 35-25 32 0 35-3 35-27 0-16 9-52 20-81s20-67 20-84c0-42-22-138-32-138-5 0-8-7-8-15s-4-15-10-15c-5 0-10-8-10-19 0-13-9-20-30-24-24-5-30-12-30-31 0-23 2-24 30-14 68 23 125 137 124 248-1 113-50 214-116 239-26 10-28 9-28-14zM1090 2705c0-8-6-15-14-15-13 0-26-48-26-97 0-42 29-26 36 19 12 70 26 77 142 71 114-7 172 1 172 22 0 13-26 15-155 15-131 0-155-2-155-15zM1600 2706c0-19 32-26 118-26 65 0 72 2 72 20 0 19-7 20-95 20-74 0-95-3-95-14zM2030 2696c0-16 30-26 78-26 25 0 32 4 32 20 0 18-7 20-55 20-40 0-55-4-55-14zM2230 2686c0-7 10-16 23-20 41-11 57-7 57 14 0 17-7 20-40 20-27 0-40-4-40-14zM2359 2615c21-45 41-45 41 0 0 32-3 35-29 35h-28l16-35z"
       id="path44" />
    <path
       d="M1136 2608c-9-45-8-48 14-48 13 0 20 7 20 20 0 20 7 20 290 20 241 0 290 2 290 14 0 23-40 26-329 26l-279-1-6-31zM2010 2610c0-18 7-20 55-20 40 0 55 4 55 14 0 16-30 26-77 26-26 0-33-4-33-20zM2230 2600c0-16 7-20 35-20 40 0 49 24 13 34-38 10-48 7-48-14zM2472 2340c2-203 0-260-9-260-7 0-13 6-13 14 0 13-48 26-97 26-45 0-24-28 29-39 60-13 107-40 143-82 30-37 31-32 5 49-18 56-20 92-20 308 0 241 0 244-21 244s-21-2-17-260zM1130 2485c0-32 23-63 52-69 48-10 58-7 58 14 0 13-7 20-19 20-33 0-51 11-51 31 0 12-7 19-20 19-11 0-20-7-20-15zM1050 2458c0-80 52-126 143-127 53-1 51 27-3 35-54 9-87 36-101 85-15 48-39 52-39 7zM3435 2453c-12-70-27-105-61-143-54-59-248-140-339-140-45 0-75-11-75-26 0-21 102-18 195 6 216 55 315 148 315 294 0 59-26 65-35 9zM2278 2448c-2-19-10-24-40-26-64-5-40-42 27-42 31 0 43 12 50 53 6 33 5 37-13 37-14 0-22-8-24-22z"
       id="path46" />
    <path
       d="M2366 2433c-20-85-51-107-132-96-40 5-44 4-44-16s5-21 73-21c58 0 79 4 96 19 23 20 41 69 41 113 0 37-26 37-34 1zM1500 2426c0-18 31-26 108-26 55 0 62 2 62 20s-7 20-85 20c-66 0-85-3-85-14zM2050 2416c0-14 29-26 68-26 15 0 22 6 22 20 0 17-7 20-45 20-32 0-45-4-45-14zM2588 2293c-3-68-9-108-16-111-7-2-12-17-12-33 0-31 56-215 68-223 4-2 158 31 342 75 696 164 760 180 760 195 0 20-35 18-153-10-56-13-124-29-152-35-27-6-212-49-409-95-198-47-361-84-362-83 0 1-13 37-27 80l-26 77h70c54 0 69 3 69 15 0 13-22 20-90 27l-25 3 4 113c3 106 2 112-17 112-18 0-20-9-24-107zM1450 2340c0-19 7-20 90-20 70 0 90 3 90 14 0 18-32 26-112 26-61 0-68-2-68-20zM2030 2330c0-17 7-20 50-20 36 0 50 4 50 14 0 15-30 26-72 26-21 0-28-5-28-20zM817 2258c-7-26-1-38 19-38 9 0 14 11 14 30 0 35-25 41-33 8zM3843 2257c-55-16-73-26-73-39 0-23 7-23 117 8 59 17 93 32 93 40 0 20-50 16-137-9zM943 2185c6-19 16-35 24-35s13 13 13 35c0 30-3 35-24 35-23 0-24-2-13-35zM747 2063c-3-60-1-129 5-155l10-48h143l-3 122c-1 68-5 138-8 156l-5 32H753l-6-107zM1180 2120c0-20 7-20 295-20s295 0 295 20-7 20-295 20-295 0-295-20zM1070 2120c0-5-13-10-30-10-26 0-30-4-30-26 0-21 3-25 18-18 9 4 38 14 65 23 56 18 63 41 12 41-19 0-35-4-35-10zM2200 2116c0-16 30-26 78-26 25 0 32 4 32 20 0 18-7 20-55 20-40 0-55-4-55-14zM1218 2053c-10-2-18-11-18-19 0-12 38-14 235-14 193 0 235 2 235 14 0 7-10 16-22 20-26 7-404 6-430-1zM950 2008c0-23 1-39 3-37s13 21 25 42l21 37h-24c-23 0-25-4-25-42zM2180 2030c0-18 7-20 55-20 40 0 55 4 55 14 0 16-30 26-77 26-26 0-33-4-33-20zM2320 2020c0-14 7-20 23-20 12-1 33-7 47-15s37-14 51-15c23 0 27-5 31-35l4-35h-48c-41 0-48-3-48-20 0-16 7-20 33-20 47 0 77 10 77 26 0 8 7 14 15 14s15-7 15-15 9-15 20-15 20 4 20 9c0 4-28 38-62 74-46 47-74 68-103 76-59 16-75 14-75-9zM1010 1971c-16-31-12-51 10-51 16 0 20 7 20 35 0 39-14 46-30 16zM1000 1870c0-18 7-20 75-20s75 2 75 20-7 20-75 20-75-2-75-20zM1830 1870c0-19 7-20 98-20 110 0 142 6 142 26 0 11-24 14-120 14-113 0-120-1-120-20zM2438 1813c-29-7-21-33 10-34 26 0 26-1 5-9-16-6-23-18-23-35 0-18-5-25-20-25s-20-7-20-24c0-18-6-25-22-28-15-2-24-11-26-24-2-12-12-24-23-27-12-3-19-14-19-30 0-19-6-26-22-29-17-2-24-11-26-30-2-20-9-28-23-28-13 0-19-7-19-24 0-18-6-25-22-28-16-2-24-11-26-30s-10-28-25-30-23-11-25-30-10-28-25-30c-14-2-23-11-25-25-2-13-10-23-18-23-9 0-14-11-14-29 0-25-4-30-27-33-22-2-29-9-31-30-2-19-10-28-25-30-17-2-23-11-25-35-3-26-8-32-30-35-22-2-28-9-30-35-3-26-8-32-30-35-23-3-27-8-30-40-3-35-6-38-33-38s-29-3-29-37c0-37 0-37 18-18 82 87 677 804 775 933 7 9-1 12-34 11-24-1-52-3-61-6zM1988 1803c-10-2-18-11-18-19 0-11 21-14 105-14 98 0 105 1 105 20s-6 20-87 19c-49-1-96-3-105-6zM1071 1766c36-18 83-45 103-61l36-27v31c0 21-6 34-17 38-10 4-24 13-31 20s-27 13-43 13-29 5-29 10c0 6-19 10-42 10l-43-1 66-33zM1264 1606c42-62 96-186 111-253 8-40 35-45 35-7 0 37-21 114-31 114-5 0-9 11-9 25s-4 25-10 25c-5 0-10 9-10 20 0 24-21 70-32 70-4 0-8 7-8 15s-4 15-9 15-11 9-14 20c-4 15-14 20-36 20h-31l44-64zM1380 1230c0-64-7-102-34-185-34-105-34-105-12-105 18 0 26 10 39 53 9 30 17 65 17 80 0 14 5 27 10 29 6 2 13 49 17 106 6 100 6 102-15 102s-22-5-22-80zM1296 891c-3-4-10-20-15-35-10-24-8-26 14-26s25 4 25 35c0 33-12 46-24 26zM1662 838c-7-7-12-28-12-47 0-34 0-34 21-15 12 10 30 31 41 47l19 27h-28c-16 0-34-5-41-12zM1266 811c-3-4-10-20-15-35-10-24-8-26 14-26s25 4 25 35c0 33-12 46-24 26zM1224 705c-8-20-23-58-34-85l-20-50h25c20 0 25 5 25 25 0 14 5 25 10 25 6 0 10 11 10 25s5 25 10 25c6 0 10 16 10 35 0 45-17 45-36 0zM1430 620c0-22 20-26 51-10 30 16 23 30-16 30-28 0-35-4-35-20zM1318 613c-30-3-38-8-38-25 0-19 4-20 48-13 75 10 92 16 92 31 0 14-19 15-102 7z"
       id="path48" />
  </g>
  <g
     fill="#212121"
     id="g66"
     style="transform:none;fill:#343434;fill-opacity:1">
    <path
       d="M1260 4426c0-2 18-16 39-30 53-37 88-90 101-153 12-54 40-76 40-30 0 49-13 97-26 97-9 0-14 11-14 28 0 26 2 27 40 24 44-4 53 10 19 29-30 15-199 46-199 35zM1690 4149c0-43 18-62 56-57l26 3-40 45-41 45-1-36zM1780 4049c0-43 18-62 56-57l26 3-40 45-41 45-1-36zM1406 4023c-2-16-8-49-11-75-6-43-4-48 13-48 16 0 20 10 26 53 3 28 6 62 6 75 0 32-27 28-34-5z"
       id="path52"
       style="fill:#343434;fill-opacity:1" />
    <path
       d="M1872 3943c3-35 6-38 35-41s32-7 35-40c3-34 6-37 35-40s32-7 35-40c3-32 7-37 31-40 15-2 27-7 27-11s-102-11-227-14c-126-3-268-13-318-21-49-8-109-17-131-21-42-7-42-7-36 21 3 16 8 31 12 34 12 8 40 102 40 132 0 53-26 29-52-49-54-160-81-230-164-420-47-107-83-197-81-199 2-3 324-1 715 3l711 8-195 230c-267 315-466 545-471 545-2 0-3-17-1-37zM2058 3143c-10-2-18-11-18-19 0-11 27-14 150-14 143 0 150 1 150 20s-6 20-132 19c-73-1-141-3-150-6zM2510 3140c0-5-8-10-18-10-23 0-72-50-72-73 0-10-8-17-19-17-10 0-43-11-73-25-29-13-79-27-110-31-48-5-58-10-58-25 0-22 2-22 101-5 110 20 184 65 257 156 30 36 31 40 12 40-11 0-20-4-20-10zM990 3083c0-32-3-88-7-125-6-65-5-68 16-68 17 0 21 6 21 35 0 28 4 35 20 35 15 0 20-7 20-25 0-39 61-64 175-72 81-5 95-4 95 9 0 20-29 28-100 28-109 0-204 83-217 188-8 70-23 66-23-5z"
       id="path54"
       style="fill:#343434;fill-opacity:1" />
    <path
       d="M1060 3110c0-33 25-83 56-112 49-46 124-64 124-30 0 17-58 42-100 42-13 0-20 7-20 20 0 42-25 100-42 100-11 0-18-8-18-20zM2630 3061c-5-20-18-72-30-116-29-112-43-337-38-609 5-221 6-234 33-311 15-44 31-83 35-88 6-7 126 19 670 147 102 24 230 54 285 66 152 34 441 118 485 140 75 38 130 181 111 285-12 65-46 148-70 169-40 36-265 95-811 211-168 36-385 83-483 103l-177 38-10-35zm522-142c128-28 233-102 264-187 22-62 31-275 14-337-18-66-70-119-154-160-131-63-201-75-437-75-193 0-209 1-218 19-6 10-9 20-6 22 2 2 9 148 15 324 7 176 18 336 24 355 19 58 37 62 253 56 105-3 215-11 245-17zm663-119c83-22 170-46 195-52 25-7 53-23 63-35 10-13 25-23 33-23s14-10 14-24c0-13 7-43 16-67 16-47 12-169-7-169-5 0-9-9-9-20s-4-20-10-20c-5 0-10-5-10-10 0-26-52-58-135-85-50-16-91-33-93-37s-16-8-30-8c-15 0-76-14-137-30-60-17-113-30-116-30-4 0 4 42 17 93 30 115 47 292 42 442-2 72 1 115 7 115s78-18 160-40zM2510 3027c-102-97-209-136-375-137-93 0-125-7-125-26 0-28 256-12 363 22 26 9 47 19 47 23s15 11 33 16c22 7 33 17 35 33 2 12 7 22 11 22 5 0 2-28-5-62-18-86-18-138 1-138 9 0 16 14 20 38 4 20 19 90 34 155 16 64 28 117 27 117-1-1-30-29-66-63zM1330 2966c0-16 30-26 83-26 30 0 37 4 37 20 0 18-7 20-60 20-44 0-60-4-60-14zM1470 2870c0-19 7-20 160-20 130 0 160 3 160 14 0 21-33 26-182 26-131 0-138-1-138-20zM973 2813c-8-34-13-38-51-46-59-12-57-37 3-37 38 0 45 3 45 20 0 13 7 20 20 20 17 0 20 7 20 40 0 52-25 54-37 3z"
       id="path56"
       style="fill:#343434;fill-opacity:1" />
    <path
       d="M820 2751c0-16 6-21 25-21 16 0 25 6 25 15 0 8-4 15-9 15s-16 3-25 6c-12 4-16 0-16-15zM2470 2655c0-91 3-115 14-115 20 0 26 32 26 138 0 85-1 92-20 92s-20-7-20-115zM1071 2706c-7-8-15-40-18-70-5-47-3-56 10-56 11 0 18 13 23 38 7 40 29 72 51 72 7 0 13 7 13 15 0 20-63 20-79 1zM1730 2706c0-19 32-26 133-26 80 0 87 2 87 20 0 19-7 20-110 20-87 0-110-3-110-14zM2080 2696c0-17 31-26 98-26 45 0 52 3 52 20 0 18-7 20-75 20-57 0-75-3-75-14zM2250 2685c0-8 14-17 35-21 19-3 46-15 60-26 24-18 25-25 24-116 0-121-13-162-56-182-44-20-42-40 2-40 28 0 35 4 35 20 0 13 7 20 19 20 24 0 30 22 37 150 8 133-1 169-46 192-44 22-110 24-110 3zM1146 2632c-3-6-9-31-12-56-6-42-5-46 15-46 17 0 21 6 21 35 0 24 5 35 15 35 8 0 15 7 15 15s-4 15-9 15-16 3-24 6-18 1-21-4zM1950 2610c0-18 7-20 60-20 44 0 60 4 60 14 0 16-30 26-82 26-31 0-38-4-38-20z"
       id="path58"
       style="fill:#343434;fill-opacity:1" />
    <path
       d="M2200 2601c0-17 6-21 34-21 19 0 38-4 41-10 11-18 45-11 45 9 0 25-6 28-68 37-49 6-52 5-52-15zM1040 2525c0-24 5-67 11-95 8-39 15-50 30-50 12 0 19-7 19-19 0-20 26-31 78-31 49 0 40 24-15 41-60 18-83 57-83 142 0 50-2 57-20 57-17 0-20-7-20-45z"
       id="path60"
       style="fill:#343434;fill-opacity:1" />
    <path
       d="M1134 2478c9-48 25-58 99-65 64-6 67-5 67 16 0 19-5 21-59 21-58 0-60 1-66 30-5 21-12 30-27 30-18 0-20-4-14-32zM2280 2471c0-30-11-51-26-51-21 0-17-27 6-33 29-8 49 13 56 61 6 38 5 42-15 42-14 0-21-6-21-19zM1610 2426c0-18 31-26 108-26 55 0 62 2 62 20s-7 20-85 20c-66 0-85-3-85-14zM2080 2416c0-14 29-26 68-26 15 0 22 6 22 20 0 17-7 20-45 20-32 0-45-4-45-14zM1280 2340c0-19 7-20 115-20 91 0 115 3 115 14 0 20-32 26-137 26-86 0-93-1-93-20zM1850 2330c0-19 7-20 120-20 96 0 120 3 120 14 0 20-32 26-142 26-91 0-98-1-98-20zM2470 2295c0-41 4-55 14-55 18 0 29 48 20 84-3 14-12 26-20 26-10 0-14-15-14-55zM2130 2320c0-18 7-20 60-20 44 0 60 4 60 14 0 16-30 26-82 26-31 0-38-4-38-20zM820 2240c0-18 7-20 56-20 53 0 56-2 67-30 16-41 37-39 37 4 0 52-21 66-96 66-57 0-64-2-64-20zM2470 2146v-45l-32 10c-18 5-68 12-110 15-68 6-78 5-78-9 0-16 10-19 115-33 61-7 99-26 146-71l37-35-19 69c-10 37-21 85-24 106-9 55-35 50-35-7zM1073 2128c-24-5-43-13-43-19 0-5-9-9-20-9s-20 5-20 10c0 6-9 10-20 10-18 0-20-7-20-65v-64l43 42c45 45 98 67 163 67 54 0 84 10 84 26 0 17-98 18-167 2zM1710 2126c0-22 33-26 213-26 160 0 167 1 167 20s-7 20-190 20c-155 0-190-3-190-14zM1072 2030c-31-14-47-29-57-54-21-50-19-76 5-76 14 0 20 7 20 21 0 28 52 78 89 85 21 5 31 12 31 25 0 25-32 24-88-1zM2120 2030c0-18 7-20 60-20 44 0 60 4 60 14 0 16-30 26-82 26-31 0-38-4-38-20zM2300 2022c0-17 9-21 60-27 37-4 60-12 60-19 0-18 43-56 63-56 11 0 17-8 17-25 0-21 5-25 31-25 35 0 34 3-25 74-47 55-92 81-159 91-43 7-47 5-47-13zM2320 1880c0-16 7-20 38-20 52 0 82 10 82 26 0 10-16 14-60 14-53 0-60-2-60-20zM1090 1876c0-7 10-16 23-20 29-8 725-8 755 0 12 4 22 13 22 20 0 12-66 14-400 14s-400-2-400-14zM2300 1810c-107-4-442-8-745-9l-549-1 72-35c81-38 156-104 201-173 35-56 87-184 95-235 3-20 8-53 11-72 4-21 12-35 20-35s15 5 15 11 7 8 16 5c33-13 266-37 417-43 122-5 157-9 157-20 0-7-11-13-25-13-21 0-25-5-25-30s-4-30-25-30c-22 0-25-4-25-35 0-32-2-35-30-35s-30-3-30-34c0-32-3-35-32-38s-33-7-36-35c-3-27-8-33-26-33-32 0-48-22-44-62 3-32 8-27 178 173 160 188 331 395 564 682 74 91 84 107 64 105-13-1-111-5-218-8z"
       id="path62"
       style="fill:#343434;fill-opacity:1" />
    <path
       d="M1386 1208c-11-42-7-58 14-58 17 0 20 7 20 40 0 45-23 57-34 18zM1366 1108c-10-38-7-48 14-48 16 0 20 7 20 35 0 40-24 49-34 13zM1327 973c-3-5-31-78-62-163-32-85-66-174-76-197-16-37-16-43-3-43 22 0 44 25 44 49 0 12 5 21 10 21 6 0 10 11 10 25s4 25 10 25c5 0 13 18 16 40 4 22 10 40 15 40s12 18 15 40c4 22 10 40 14 40 9 0 30 71 30 104 0 24-13 35-23 19zM1632 808c-7-7-12-28-12-47 0-34 0-34 21-15 12 10 30 31 41 47l19 27h-28c-16 0-34-5-41-12zM1475 660c-36-23-136-50-182-50-26 0-33-4-33-20 0-23 0-23 93-9 92 14 167 43 197 74l23 25-34-1c-19 0-48-9-64-19z"
       id="path64"
       style="fill:#343434;fill-opacity:1" />
  </g>
  <g
     fill="#292929"
     id="g74">
    <path
       d="m 1313,4390 c 84,-74 92,-99 91,-285 -1,-173 -11,-221 -82,-405 -17,-41 -29,-76 -28,-77 1,-2 38,4 82,12 186,36 292,47 513,53 l 234,7 -114,130 c -174,200 -283,320 -398,438 -113,115 -152,138 -256,152 -28,4 -59,9 -70,12 -12,3 -1,-12 28,-37 z m 272,-169 c 63,-63 115,-117 115,-120 0,-11 75,-81 87,-81 7,0 13,-8 13,-19 0,-10 18,-35 40,-55 22,-20 40,-40 40,-45 0,-5 16,-23 35,-40 19,-17 35,-35 35,-40 0,-5 16,-23 35,-40 19,-17 35,-34 35,-39 0,-5 -98,-12 -217,-15 -138,-4 -258,-13 -329,-25 l -110,-18 32,95 c 56,163 70,428 30,538 l -15,43 29,-13 c 16,-6 81,-63 145,-126 z m 101,-1078 -628,-3 7,-37 c 14,-76 54,-123 124,-144 56,-16 926,-25 1032,-10 114,17 181,49 257,124 34,34 62,65 62,69 0,4 -51,7 -112,6 -62,-2 -396,-4 -742,-5 z"
       id="path68" />
    <path
       d="m 998,3094 c -5,-4 -8,-39 -9,-78 0,-39 -4,-106 -8,-150 -8,-95 -19,-106 -103,-106 h -58 v -530 l 28,-1 c 73,-4 84,-6 93,-19 5,-8 9,-35 10,-60 0,-25 4,-67 8,-95 6,-46 8,-48 19,-28 6,12 38,34 69,50 l 58,28 585,-1 c 704,-1 734,-4 819,-83 21,-19 31,-24 26,-14 -32,86 -37,151 -32,483 4,318 6,341 31,444 14,60 28,118 32,129 3,11 -19,-5 -52,-38 -76,-75 -156,-113 -277,-131 -105,-16 -551,-18 -868,-5 -168,8 -201,12 -236,30 -54,27 -111,94 -120,143 -4,22 -11,36 -15,32 z m 1413,-315 c -15,-80 -17,-86 -36,-78 -28,13 -1191,59 -1241,50 -56,-10 -59,-13 -90,-79 -21,-46 -27,-76 -31,-152 -5,-115 3,-135 72,-172 45,-25 60,-28 153,-28 84,0 102,3 102,15 0,18 13,15 -102,24 -116,9 -141,25 -157,102 -12,54 1,193 20,215 9,11 80,14 373,14 497,0 807,-14 855,-37 47,-24 58,-70 44,-189 -14,-111 -33,-134 -110,-134 -47,0 -53,-2 -53,-21 0,-21 4,-21 90,-17 l 90,4 v -78 c 0,-43 -1,-78 -2,-78 -2,0 -73,10 -158,21 -125,17 -228,22 -530,26 -346,4 -385,3 -501,-16 -70,-11 -138,-25 -152,-30 -23,-9 -25,-7 -31,23 -9,48 -60,120 -101,142 l -35,19 2,188 3,188 55,19 c 57,19 105,64 117,108 4,17 10,21 22,17 9,-4 30,-12 46,-17 41,-14 1092,-19 1164,-6 30,5 72,18 95,28 22,9 42,17 42,16 1,0 -6,-40 -15,-87 z"
       id="path70" />
    <path
       d="m 1135,2562 c -5,-51 -3,-78 8,-104 l 15,-36 114,-6 c 62,-3 257,-8 433,-11 176,-3 381,-8 456,-11 159,-8 148,-15 156,111 5,66 3,83 -10,94 -23,19 -315,30 -778,31 h -387 z m 425,-231 c 0,-20 5,-21 88,-21 49,0 191,-3 315,-7 201,-5 227,-4 227,9 0,9 -10,18 -22,21 -13,3 -155,9 -315,13 l -293,7 z m 2054,351 c -1,-218 -8,-268 -60,-449 -14,-47 -23,-88 -20,-90 6,-6 297,70 433,113 71,23 121,45 137,60 70,71 95,212 57,326 -37,110 -60,124 -352,198 -90,22 -171,43 -179,45 -13,4 -15,-23 -16,-203 z M 1097,2036 c -21,-8 -47,-22 -58,-32 -21,-19 -39,-73 -39,-116 v -28 l 663,1 c 364,1 715,4 780,8 l 119,6 -58,64 c -32,35 -74,70 -92,78 -56,23 -286,33 -797,32 -379,0 -488,-3 -518,-13 z m 290,-750 c 4,-20 14,-27 52,-36 50,-11 339,-38 461,-42 l 74,-3 -92,-107 c -51,-59 -92,-110 -92,-113 0,-3 -16,-19 -35,-36 -19,-17 -35,-35 -35,-40 0,-5 -18,-25 -40,-45 -22,-20 -40,-45 -40,-55 0,-11 -6,-19 -13,-19 -8,0 -39,-26 -69,-58 -62,-65 -102,-86 -203,-107 -96,-20 -119,-20 -110,3 98,244 175,479 175,537 0,67 -25,60 -40,-10 -15,-71 -72,-240 -144,-426 -31,-81 -56,-149 -56,-153 0,-17 192,4 272,30 26,8 64,28 86,44 55,39 522,568 522,590 0,4 -75,10 -167,13 -171,7 -380,29 -443,47 -56,16 -68,13 -63,-14 z"
       id="path72" />
  </g>
  <g
     fill="#313131"
     id="g80"
     transform="translate(1600)"
     style="fill:#46473f;fill-opacity:1">
    <path
       d="m -263,4373 c 54,-53 70,-93 80,-196 12,-130 -19,-294 -90,-478 l -26,-67 37,9 c 145,34 312,52 533,58 l 237,6 -176,200 c -260,295 -423,459 -475,478 -39,15 -136,37 -158,37 -6,0 11,-21 38,-47 z"
       id="path76"
       sodipodi:nodetypes="cccccccccsc"
       style="fill:#46473f;fill-opacity:1" />
    <path
       d="m -210,1226 c 0,-57 -8,-100 -31,-173 -29,-89 -106,-302 -157,-429 l -20,-50 61,3 c 89,6 214,31 257,53 20,10 74,58 119,106 91,96 431,489 431,498 0,3 -46,6 -102,6 -176,0 -451,29 -540,56 -16,5 -18,-3 -18,-70 z"
       id="path78"
       sodipodi:nodetypes="sccccccsscs"
       style="fill:#46473f;fill-opacity:1" />
  </g>
  <path
     d="m 2420,2900 c -19,-11 -69,-30 -110,-43 l -75,-24 -520,2 c -527,2 -567,5 -637,41 -26,13 -27,13 -48,-31 -25,-51 -79,-102 -118,-111 -15,-3 -33,-7 -39,-10 -10,-2 -13,-54 -13,-212 v -209 l 37,-24 c 44,-29 79,-77 95,-133 6,-23 12,-42 13,-43 0,-1 23,5 50,13 218,66 750,75 1183,19 62,-8 127,-15 145,-15 h 32 l 1,288 c 1,263 3,296 26,400 13,61 21,112 18,112 -3,-1 -21,-10 -40,-20 z m -615,-190 c 281,-11 520,-23 532,-25 44,-10 55,-45 60,-188 5,-132 5,-132 -20,-156 -25,-23 -32,-24 -159,-22 -73,1 -252,6 -398,11 -146,5 -350,10 -455,10 -178,0 -193,2 -240,24 -79,37 -90,55 -89,145 2,61 7,87 31,136 16,35 39,65 53,72 34,17 92,16 685,-7 z"
     fill="#424242"
     id="path92" />
</svg>
