<?xml version="1.0" encoding="UTF-8" standalone="no"?>
<svg
   xmlns:dc="http://purl.org/dc/elements/1.1/"
   xmlns:cc="http://creativecommons.org/ns#"
   xmlns:rdf="http://www.w3.org/1999/02/22-rdf-syntax-ns#"
   xmlns:svg="http://www.w3.org/2000/svg"
   xmlns="http://www.w3.org/2000/svg"
   xmlns:sodipodi="http://sodipodi.sourceforge.net/DTD/sodipodi-0.dtd"
   xmlns:inkscape="http://www.inkscape.org/namespaces/inkscape"
   width="677"
   height="677"
   viewBox="0 0 179.12291 179.12292"
   version="1.1"
   id="svg8"
   sodipodi:docname="Planeta Mundo 4.svg"
   inkscape:export-filename="C:\Users\Madirex\Escritorio\bitmap.png"
   inkscape:export-xdpi="96"
   inkscape:export-ydpi="96"
   inkscape:version="1.0.1 (3bc2e813f5, 2020-09-07)">
  <defs
     id="defs2" />
  <sodipodi:namedview
     id="base"
     pagecolor="#ffffff"
     bordercolor="#666666"
     borderopacity="1.0"
     inkscape:pageopacity="0.0"
     inkscape:pageshadow="2"
     inkscape:zoom="0.7"
     inkscape:cx="218.45192"
     inkscape:cy="440.9063"
     inkscape:document-units="mm"
     inkscape:current-layer="layer1"
     inkscape:document-rotation="0"
     showgrid="false"
     units="px"
     showguides="false"
     inkscape:window-width="1920"
     inkscape:window-height="1017"
     inkscape:window-x="-8"
     inkscape:window-y="-8"
     inkscape:window-maximized="1" />
  <metadata
     id="metadata5">
    <rdf:RDF>
      <cc:Work
         rdf:about="">
        <dc:format>image/svg+xml</dc:format>
        <dc:type
           rdf:resource="http://purl.org/dc/dcmitype/StillImage" />
        <dc:title></dc:title>
      </cc:Work>
    </rdf:RDF>
  </metadata>
  <g
     inkscape:label="Capa 1"
     inkscape:groupmode="layer"
     id="layer1">
    <ellipse
       style="fill:#a02c89;stroke:#000000;stroke-width:1.667;stroke-linejoin:round;stroke-miterlimit:4;stroke-dasharray:none;paint-order:stroke fill markers"
       id="path833"
       cx="88.635422"
       cy="89.491829"
       rx="73.188377"
       ry="73.944328" />
    <path
       style="fill:none;stroke:#000000;stroke-width:0.264583px;stroke-linecap:butt;stroke-linejoin:miter;stroke-opacity:1"
       d="m 80.568792,15.859981 0.814207,-0.504699"
       id="path1034"
       sodipodi:nodetypes="cc" />
    <path
       style="fill:none;stroke:#000000;stroke-width:0.264583px;stroke-linecap:butt;stroke-linejoin:miter;stroke-opacity:1"
       d="m 119.41236,22.391071 -0.43254,-0.651534"
       id="path1036"
       sodipodi:nodetypes="cc" />
    <path
       style="fill:#e9afdd;stroke:#000000;stroke-width:0.264583px;stroke-linecap:butt;stroke-linejoin:miter;stroke-opacity:1"
       d="M 30.663317,44.081474 C 71.538631,26.865012 110.64044,32.709643 145.8988,42.99479 c 4.25434,5.63655 6.99907,10.928795 9.6384,16.06399 C 117.3718,46.972625 75.435187,42.227054 21.945547,58.208333 c 2.572978,-4.842131 5.265205,-9.636563 8.71777,-14.126859 z"
       id="path853"
       sodipodi:nodetypes="ccccc" />
    <path
       style="fill:#e9afdd;stroke:#000000;stroke-width:0.320073px;stroke-linecap:butt;stroke-linejoin:miter;stroke-opacity:1"
       d="m 17.764881,71.343074 c 48.9198,-16.008303 100.294709,-12.881174 142.347869,1.43795 2.16954,11.376559 3.2947,20.577382 0.23296,32.004376 C 116.80883,115.7269 59.765733,124.94344 16.478283,102.89435 14.051281,92.769975 15.461899,80.754813 17.764841,71.343074 Z"
       id="path855"
       sodipodi:nodetypes="cccccc" />
    <path
       style="fill:#e9afdd;stroke:#000000;stroke-width:0.264583px;stroke-linecap:butt;stroke-linejoin:miter;stroke-opacity:1"
       d="m 24.693068,125.93139 c 16.482562,17.99 95.770272,17.32573 127.679502,-0.0431 3.19729,-5.2127 4.14332,-8.37599 5.81277,-12.72149 -30.1363,14.51081 -107.529599,15.77952 -138.800155,0.24437 2.637142,7.24501 1.750452,5.23146 5.307883,12.52019 z"
       id="path859"
       sodipodi:nodetypes="ccccc" />
    <path
       style="fill:#f4d7ee;fill-opacity:1;stroke:#000000;stroke-width:0.264583px;stroke-linecap:butt;stroke-linejoin:miter;stroke-opacity:1"
       d="m 15.206826,92.359825 c 47.964267,13.818885 98.086714,11.969665 147.057634,0.622316 0.17761,-3.548434 -0.12921,-7.478285 -0.49065,-11.339285 C 115.84838,71.337353 67.834663,68.688906 15.875,80.508929 c -0.158927,3.905754 -1.071782,7.677872 -0.668174,11.850896 z"
       id="path861"
       sodipodi:nodetypes="ccccc" />
    <path
       id="path833-4"
       style="opacity:0.26367188;fill:#000000;fill-opacity:0.0596175;stroke:none;stroke-width:0.365;stroke-linejoin:round;stroke-miterlimit:4;stroke-dasharray:none;paint-order:stroke fill markers"
       d="M 91.106355,14.995452 C 73.940083,35.54541 65.144566,60.204621 63.008422,88.746366 60.871242,117.30194 70.042274,142.06906 86.845344,163.34536 46.054976,161.36678 12.689532,127.15654 14.647895,86.783192 16.606244,46.409824 53.528794,14.150799 91.106355,14.995452 Z"
       sodipodi:nodetypes="cscsc" />
  </g>
</svg>
