<?xml version="1.0" encoding="UTF-8" standalone="no"?>
<svg
   xmlns:osb="http://www.openswatchbook.org/uri/2009/osb"
   xmlns:dc="http://purl.org/dc/elements/1.1/"
   xmlns:cc="http://creativecommons.org/ns#"
   xmlns:rdf="http://www.w3.org/1999/02/22-rdf-syntax-ns#"
   xmlns:svg="http://www.w3.org/2000/svg"
   xmlns="http://www.w3.org/2000/svg"
   xmlns:sodipodi="http://sodipodi.sourceforge.net/DTD/sodipodi-0.dtd"
   xmlns:inkscape="http://www.inkscape.org/namespaces/inkscape"
   width="677"
   height="677"
   viewBox="0 0 179.12291 179.12292"
   version="1.1"
   id="svg8"
   sodipodi:docname="Planeta Mundo 5.svg"
   inkscape:export-filename="C:\Users\Madirex\Escritorio\bitmap.png"
   inkscape:export-xdpi="96"
   inkscape:export-ydpi="96"
   inkscape:version="1.0.1 (3bc2e813f5, 2020-09-07)">
  <defs
     id="defs2">
    <linearGradient
       id="linearGradient2862"
       osb:paint="solid">
      <stop
         style="stop-color:#d4aa00;stop-opacity:1;"
         offset="0"
         id="stop2860" />
    </linearGradient>
    <linearGradient
       id="linearGradient894"
       osb:paint="gradient">
      <stop
         style="stop-color:#d4aa00;stop-opacity:1;"
         offset="0"
         id="stop890" />
      <stop
         style="stop-color:#d4aa00;stop-opacity:0;"
         offset="1"
         id="stop892" />
    </linearGradient>
  </defs>
  <sodipodi:namedview
     id="base"
     pagecolor="#ffffff"
     bordercolor="#666666"
     borderopacity="1.0"
     inkscape:pageopacity="0.0"
     inkscape:pageshadow="2"
     inkscape:zoom="0.7"
     inkscape:cx="39.856291"
     inkscape:cy="280.57037"
     inkscape:document-units="mm"
     inkscape:current-layer="layer1"
     inkscape:document-rotation="0"
     showgrid="false"
     units="px"
     showguides="false"
     inkscape:window-width="1920"
     inkscape:window-height="1017"
     inkscape:window-x="-8"
     inkscape:window-y="-8"
     inkscape:window-maximized="1" />
  <metadata
     id="metadata5">
    <rdf:RDF>
      <cc:Work
         rdf:about="">
        <dc:format>image/svg+xml</dc:format>
        <dc:type
           rdf:resource="http://purl.org/dc/dcmitype/StillImage" />
        <dc:title></dc:title>
      </cc:Work>
    </rdf:RDF>
  </metadata>
  <g
     inkscape:label="Capa 1"
     inkscape:groupmode="layer"
     id="layer1">
    <ellipse
       style="fill:#000000;fill-opacity:1;stroke:#000000;stroke-width:1.087;stroke-linejoin:round;stroke-miterlimit:4;stroke-dasharray:none;paint-order:stroke fill markers"
       id="path833-0"
       cx="89.353561"
       cy="89.958336"
       rx="47.790825"
       ry="48.107021" />
    <path
       style="fill:#000000;fill-opacity:1;stroke:#000000;stroke-width:0.264583px;stroke-linecap:butt;stroke-linejoin:miter;stroke-opacity:1"
       d="M 44.961148,105.19294 C 28.572498,124.49055 -0.09778726,151.18657 7.7451328,164.71607 20.277181,177.11218 73.810138,132.12431 105.64085,105.37734 113.48257,97.949483 125.51356,85.612586 137.31411,72.193145 160.49665,45.830241 182.78985,15.289384 170.68405,9.5825533 163.84099,8.3778585 156.27988,7.8351337 107.93881,44.888017 c 5.13612,1.611789 11.77715,7.610868 11.77715,7.610868 2.98815,-2.5605 10.4376,-11.238806 17.38803,-8.913909 10.46956,6.25407 -29.26515,50.517795 -37.793752,56.295487 -23.21966,20.480907 -53.0404,40.838507 -56.28738,31.655057 -0.39405,-2.81074 0.0191,-4.70613 1.22743,-6.87635 5.65679,-10.16031 6.47217,-7.98756 5.80579,-8.98625 -1.75084,-2.62394 -3.33417,-4.90568 -5.09493,-10.47998 z"
       id="path854-5"
       sodipodi:nodetypes="cccsccscccssc" />
    <ellipse
       style="fill:#d4aa00;fill-opacity:1;stroke:#000000;stroke-width:1.087;stroke-linejoin:round;stroke-miterlimit:4;stroke-dasharray:none;paint-order:stroke fill markers"
       id="path833"
       cx="88.635422"
       cy="89.491829"
       rx="47.790825"
       ry="48.107018" />
    <path
       style="fill:#ffd42a;stroke:#000000;stroke-width:0.208618px;stroke-linecap:butt;stroke-linejoin:miter;stroke-opacity:1"
       d="m 42.358107,77.684535 c 32.096473,-22.653652 58.327963,-21.456536 92.950853,0.935507 1.41667,7.40141 2.15138,13.387321 0.15212,20.821544 -32.0025,20.849184 -68.206463,20.816904 -93.943101,-1.230288 -1.584793,-6.586759 -0.663682,-14.403634 0.840102,-20.526763 z"
       id="path855"
       sodipodi:nodetypes="cccccc" />
    <path
       id="path833-4"
       style="opacity:0.25;fill:#000000;fill-opacity:0.0596175;stroke:none;stroke-width:0.264243;stroke-linejoin:round;stroke-miterlimit:4;stroke-dasharray:none;paint-order:stroke fill markers"
       d="M 95.374597,40.979098 C 81.478795,54.284351 81.028781,70.675929 80.90077,89.235822 80.772753,107.79648 86.921639,122.4371 100.52343,136.21262 64.905047,145.42013 39.247211,114.21101 41.004207,87.444614 42.770185,60.541391 64.353995,38.51128 95.374597,40.979098 Z"
       sodipodi:nodetypes="cscsc" />
    <path
       style="fill:#554400;stroke:#000000;stroke-width:0.264583px;stroke-linecap:butt;stroke-linejoin:miter;stroke-opacity:1;fill-opacity:1"
       d="M 42.844473,104.66377 C 26.455825,123.96138 -2.214455,150.6574 5.6284646,164.1869 18.160512,176.58301 71.693471,131.59514 103.52417,104.84817 126.77118,82.828061 186.83536,17.66515 168.56737,9.0533866 161.72431,7.8486914 154.1632,7.3059664 105.82213,44.35885 c 5.13612,1.611788 12.20237,6.713175 12.20237,6.713175 2.98815,-2.560501 10.01238,-10.341114 16.96281,-8.016216 10.46956,6.25407 -29.26515,50.517794 -37.793743,56.295483 -23.219655,20.480908 -53.040396,40.838508 -56.28738,31.655058 -0.394054,-2.81074 0.01916,-4.70613 1.227434,-6.87635 5.65679,-10.16031 6.472163,-7.98756 5.805782,-8.98625 -1.750841,-2.62394 -3.334163,-4.90568 -5.09493,-10.47998 z"
       id="path854"
       sodipodi:nodetypes="cccccscccssc" />
  </g>
</svg>
