<?xml version="1.0" encoding="UTF-8" standalone="no"?>
<svg
   xmlns:dc="http://purl.org/dc/elements/1.1/"
   xmlns:cc="http://creativecommons.org/ns#"
   xmlns:rdf="http://www.w3.org/1999/02/22-rdf-syntax-ns#"
   xmlns:svg="http://www.w3.org/2000/svg"
   xmlns="http://www.w3.org/2000/svg"
   xmlns:sodipodi="http://sodipodi.sourceforge.net/DTD/sodipodi-0.dtd"
   xmlns:inkscape="http://www.inkscape.org/namespaces/inkscape"
   width="677"
   height="677"
   viewBox="0 0 179.12291 179.12292"
   version="1.1"
   id="svg8"
   sodipodi:docname="Planeta Mundo 3.svg"
   inkscape:export-filename="C:\Users\Madirex\Escritorio\bitmap.png"
   inkscape:export-xdpi="96"
   inkscape:export-ydpi="96"
   inkscape:version="1.0.1 (3bc2e813f5, 2020-09-07)">
  <defs
     id="defs2" />
  <sodipodi:namedview
     id="base"
     pagecolor="#ffffff"
     bordercolor="#666666"
     borderopacity="1.0"
     inkscape:pageopacity="0.0"
     inkscape:pageshadow="2"
     inkscape:zoom="0.98994949"
     inkscape:cx="233.85495"
     inkscape:cy="351.56088"
     inkscape:document-units="mm"
     inkscape:current-layer="layer1"
     inkscape:document-rotation="0"
     showgrid="false"
     units="px"
     showguides="false"
     inkscape:window-width="1920"
     inkscape:window-height="1017"
     inkscape:window-x="-8"
     inkscape:window-y="-8"
     inkscape:window-maximized="1" />
  <metadata
     id="metadata5">
    <rdf:RDF>
      <cc:Work
         rdf:about="">
        <dc:format>image/svg+xml</dc:format>
        <dc:type
           rdf:resource="http://purl.org/dc/dcmitype/StillImage" />
        <dc:title></dc:title>
      </cc:Work>
    </rdf:RDF>
  </metadata>
  <g
     inkscape:label="Capa 1"
     inkscape:groupmode="layer"
     id="layer1">
    <ellipse
       style="fill:#00d455;stroke:#000000;stroke-width:1.667;stroke-linejoin:round;stroke-miterlimit:4;stroke-dasharray:none;paint-order:stroke fill markers"
       id="path833"
       cx="88.635422"
       cy="89.491829"
       rx="73.188377"
       ry="73.944328" />
    <path
       style="opacity:0.15;fill:#000000;fill-opacity:1;stroke:#000000;stroke-width:0.499999;stroke-linecap:butt;stroke-linejoin:miter;stroke-miterlimit:4;stroke-dasharray:none;stroke-opacity:1"
       d="m 113.69392,92.2541 c 3.28928,-0.840468 7.34941,0.758659 9.24038,2.997314 4.59767,5.443006 5.53517,14.536576 1.03159,20.531306 -3.39536,4.51957 -12.03513,8.95708 -17.34351,6.5716 -6.706086,-3.0136 -4.8378,-12.9443 -2.67749,-19.35116 1.43775,-4.263957 4.67957,-9.453785 9.74903,-10.74906 z"
       id="path858-3-2"
       sodipodi:nodetypes="aaaaaa" />
    <path
       style="opacity:0.15;fill:#000000;fill-opacity:1;stroke:#000000;stroke-width:0.499999;stroke-linecap:butt;stroke-linejoin:miter;stroke-miterlimit:4;stroke-dasharray:none;stroke-opacity:1"
       d="m 28.064206,106.52909 c -2.696489,-2.44154 -3.170754,-7.367157 -1.774424,-10.744561 3.394989,-8.211737 12.730052,-15.675768 21.665886,-15.845683 6.736967,-0.128102 16.233754,4.66778 16.534731,11.321492 0.380217,8.405662 -11.385098,13.874252 -19.494313,16.516542 -5.396917,1.75854 -12.776068,2.51511 -16.93188,-1.24779 z"
       id="path858-4"
       sodipodi:nodetypes="aaaaaa" />
    <path
       style="fill:#2ca02c;stroke:#000000;stroke-width:0.5;stroke-linecap:butt;stroke-linejoin:miter;stroke-miterlimit:4;stroke-dasharray:none;stroke-opacity:1"
       d="m 27.535039,105.47075 c -2.696489,-2.44154 -3.170754,-7.367144 -1.774424,-10.744548 3.394989,-8.211737 12.730052,-15.675768 21.665886,-15.845683 6.736966,-0.128102 16.233754,4.66778 16.53473,11.321492 0.380218,8.405662 -11.385095,13.874239 -19.494312,16.516529 -5.396916,1.75854 -12.776068,2.51511 -16.93188,-1.24779 z"
       id="path858"
       sodipodi:nodetypes="aaaaaa" />
    <path
       style="fill:#000000;fill-opacity:1;stroke:#000000;stroke-width:0.499999;stroke-linecap:butt;stroke-linejoin:miter;stroke-miterlimit:4;stroke-dasharray:none;stroke-opacity:1;opacity:0.15039062"
       d="m 79.773073,16.775991 c -4.400707,3.873953 -8.470079,10.344826 -5.501954,14.6249 3.759432,5.42115 13.266505,-1.007356 19.791377,-0.03358 6.516854,0.972578 12.943194,8.628594 18.895894,5.803618 4.51442,-2.142409 5.85027,-6.539517 5.65235,-13.884521"
       id="path864-4"
       sodipodi:nodetypes="caaac" />
    <path
       style="fill:#2ca02c;stroke:#000000;stroke-width:0.5;stroke-linecap:butt;stroke-linejoin:miter;stroke-miterlimit:4;stroke-dasharray:none;stroke-opacity:1"
       d="m 80.58651,15.703475 c -4.400707,3.873953 -8.470079,10.344826 -5.501954,14.6249 3.759432,5.42115 13.266505,-1.007356 19.791377,-0.03358 6.516847,0.972578 12.943187,8.628594 18.895887,5.803617 4.51442,-2.142409 5.85027,-6.539517 5.65235,-13.88452"
       id="path864"
       sodipodi:nodetypes="caaac" />
    <path
       style="fill:#2ca02c;stroke:none;stroke-width:0.5;stroke-linecap:butt;stroke-linejoin:miter;stroke-opacity:1;stroke-miterlimit:4;stroke-dasharray:none"
       d="m 119.42417,22.213892 c 0,0 -6.88156,-2.821443 -10.44378,-3.865476 -3.10713,-0.910651 -7.28545,-1.802413 -11.000252,-2.26811 -5.149053,-0.645498 -10.374288,-1.071473 -15.551538,-0.71722 -0.622968,0.04263 -1.84209,0.340389 -1.84209,0.340389 3.020417,0.803649 18.425905,3.740479 18.425905,3.740479 l 4.260695,1.018863 14.41846,1.790728 1.7326,-0.03965"
       id="path868"
       sodipodi:nodetypes="csaaccccc" />
    <path
       id="path833-4"
       style="opacity:0.312155;fill:#000000;fill-opacity:0.0596175;stroke:none;stroke-width:0.365;stroke-linejoin:round;stroke-miterlimit:4;stroke-dasharray:none;paint-order:stroke fill markers"
       d="M 91.106355,14.995452 C 73.940083,35.54541 65.144566,60.204621 63.008422,88.746366 60.871242,117.30194 70.042274,142.06906 86.845344,163.34536 46.054976,161.36678 12.689532,127.15654 14.647895,86.783192 16.606244,46.409824 53.528794,14.150799 91.106355,14.995452 Z"
       sodipodi:nodetypes="cscsc" />
    <path
       style="fill:#2ca02c;stroke:#000000;stroke-width:0.5;stroke-linecap:butt;stroke-linejoin:miter;stroke-miterlimit:4;stroke-dasharray:none;stroke-opacity:1"
       d="m 112.63558,91.195766 c 3.28928,-0.840468 7.34941,0.758659 9.24038,2.997315 4.59767,5.442999 5.53517,14.536569 1.03159,20.531299 -3.39536,4.51957 -12.03513,8.95708 -17.34351,6.5716 -6.706083,-3.0136 -4.8378,-12.9443 -2.67749,-19.35116 1.43775,-4.263952 4.67957,-9.453779 9.74903,-10.749054 z"
       id="path858-3"
       sodipodi:nodetypes="aaaaaa" />
    <path
       style="fill:#000000;fill-opacity:1;stroke:#000000;stroke-width:0.499999;stroke-linecap:butt;stroke-linejoin:miter;stroke-miterlimit:4;stroke-dasharray:none;stroke-opacity:1;opacity:0.15"
       d="m 104.11436,45.509169 c 3.28928,-0.840468 7.34941,0.758659 9.24038,2.997315 4.59767,5.443 5.53517,14.53658 1.03159,20.53131 -3.39536,4.51957 -12.03513,8.95708 -17.343503,6.571599 -6.70608,-3.013599 -4.8378,-12.944299 -2.67749,-19.351159 1.43775,-4.26396 4.67957,-9.45379 9.749023,-10.749065 z"
       id="path858-3-9-14"
       sodipodi:nodetypes="aaaaaa" />
    <path
       style="fill:#2ca02c;stroke:#000000;stroke-width:0.5;stroke-linecap:butt;stroke-linejoin:miter;stroke-miterlimit:4;stroke-dasharray:none;stroke-opacity:1"
       d="m 103.58519,44.450835 c 3.28928,-0.840468 7.34941,0.758659 9.24038,2.997315 4.59767,5.443 5.53517,14.53658 1.03159,20.53131 -3.39536,4.51957 -12.03513,8.95708 -17.343508,6.5716 -6.70608,-3.0136 -4.8378,-12.9443 -2.67749,-19.35116 1.43775,-4.26396 4.67957,-9.45379 9.749028,-10.749065 z"
       id="path858-3-9"
       sodipodi:nodetypes="aaaaaa" />
    <path
       style="fill:#000000;fill-opacity:1;stroke:#000000;stroke-width:0.499999;stroke-linecap:butt;stroke-linejoin:miter;stroke-miterlimit:4;stroke-dasharray:none;stroke-opacity:1;opacity:0.15"
       d="m 69.558506,122.81999 c 2.315514,-0.51719 5.173674,0.46685 6.504836,1.84441 3.236565,3.34937 3.896525,8.94514 0.726196,12.63402 -2.39019,2.78113 -8.472222,5.51176 -12.209096,4.04386 -4.720797,-1.85443 -3.405607,-7.96533 -1.88484,-11.90781 1.012115,-2.62384 3.294219,-5.81742 6.862904,-6.61448 z"
       id="path858-3-9-1-1"
       sodipodi:nodetypes="aaaaaa" />
    <path
       style="fill:#2ca02c;stroke:#000000;stroke-width:0.5;stroke-linecap:butt;stroke-linejoin:miter;stroke-miterlimit:4;stroke-dasharray:none;stroke-opacity:1"
       d="m 69.029339,121.76165 c 2.315514,-0.51719 5.173674,0.46685 6.504836,1.84441 3.236565,3.34937 3.896525,8.94514 0.726196,12.63402 -2.39019,2.78113 -8.472222,5.51176 -12.209096,4.04386 -4.720797,-1.85443 -3.405607,-7.96533 -1.88484,-11.90781 1.012115,-2.62384 3.294219,-5.81742 6.862904,-6.61448 z"
       id="path858-3-9-1"
       sodipodi:nodetypes="aaaaaa" />
    <path
       style="fill:#000000;fill-opacity:1;stroke:#000000;stroke-width:0.499999;stroke-linecap:butt;stroke-linejoin:miter;stroke-miterlimit:4;stroke-dasharray:none;stroke-opacity:1;opacity:0.15"
       d="m 53.214937,42.743153 c 2.315514,-0.51719 5.173673,0.46685 6.504836,1.84441 3.236564,3.34937 3.896524,8.945141 0.726196,12.634021 -2.390191,2.78113 -8.472222,5.51176 -12.209096,4.04386 -4.720797,-1.85443 -3.405607,-7.96533 -1.88484,-11.907811 1.012115,-2.62384 3.294219,-5.81742 6.862904,-6.61448 z"
       id="path858-3-9-1-3-3"
       sodipodi:nodetypes="aaaaaa" />
    <path
       style="fill:#2ca02c;stroke:#000000;stroke-width:0.5;stroke-linecap:butt;stroke-linejoin:miter;stroke-miterlimit:4;stroke-dasharray:none;stroke-opacity:1"
       d="m 52.399949,41.630693 c 2.315514,-0.51719 5.173673,0.46685 6.504836,1.84441 3.236564,3.34937 3.896524,8.94514 0.726196,12.63402 -2.390191,2.78113 -8.472222,5.51176 -12.209096,4.04386 -4.720797,-1.85443 -3.405607,-7.96533 -1.88484,-11.90781 1.012115,-2.62384 3.294219,-5.81742 6.862904,-6.61448 z"
       id="path858-3-9-1-3"
       sodipodi:nodetypes="aaaaaa" />
    <path
       style="fill:#000000;fill-opacity:1;stroke:#000000;stroke-width:0.499999;stroke-linecap:butt;stroke-linejoin:miter;stroke-miterlimit:4;stroke-dasharray:none;stroke-opacity:1;opacity:0.15"
       d="m 136.08388,69.525333 c 2.31551,-0.51719 5.17367,0.46685 6.50484,1.84441 3.23656,3.349371 3.89652,8.945142 0.72619,12.634022 -2.39019,2.78113 -8.47222,5.511761 -12.20909,4.043861 -4.7208,-1.854431 -3.40561,-7.965331 -1.88484,-11.907812 1.01211,-2.623841 3.29421,-5.817421 6.8629,-6.614481 z"
       id="path858-3-9-1-3-0-4"
       sodipodi:nodetypes="aaaaaa" />
    <path
       style="fill:#2ca02c;stroke:#000000;stroke-width:0.5;stroke-linecap:butt;stroke-linejoin:miter;stroke-miterlimit:4;stroke-dasharray:none;stroke-opacity:1"
       d="m 135.55471,68.466999 c 2.31551,-0.51719 5.17367,0.46685 6.50484,1.84441 3.23656,3.34937 3.89652,8.945141 0.72619,12.634021 -2.39019,2.78113 -8.47222,5.511761 -12.20909,4.043861 -4.7208,-1.854431 -3.40561,-7.965331 -1.88484,-11.907812 1.01211,-2.62384 3.29421,-5.81742 6.8629,-6.61448 z"
       id="path858-3-9-1-3-0"
       sodipodi:nodetypes="aaaaaa" />
    <path
       style="fill:#000000;fill-opacity:1;stroke:#000000;stroke-width:0.499999;stroke-linecap:butt;stroke-linejoin:miter;stroke-miterlimit:4;stroke-dasharray:none;stroke-opacity:1;opacity:0.15"
       d="m 113.52404,136.62266 c 1.41841,0.50996 2.29195,2.28214 2.20176,3.75496 -0.2193,3.58097 -2.92038,7.77131 -6.47412,9.17248 -2.67924,1.05637 -7.1468,0.68331 -8.19087,-1.76141 -1.318967,-3.08844 2.63203,-6.89587 5.51164,-9.09845 1.91646,-1.46588 4.76557,-2.85355 6.95159,-2.06758 z"
       id="path858-3-9-1-5-7"
       sodipodi:nodetypes="aaaaaa" />
    <path
       style="fill:#2ca02c;stroke:#000000;stroke-width:0.5;stroke-linecap:butt;stroke-linejoin:miter;stroke-miterlimit:4;stroke-dasharray:none;stroke-opacity:1"
       d="m 112.92771,135.68233 c 1.41841,0.50996 2.29195,2.28214 2.20176,3.75496 -0.2193,3.58097 -2.92038,7.77131 -6.47412,9.17248 -2.67924,1.05637 -7.1468,0.68331 -8.19087,-1.76141 -1.318963,-3.08844 2.63203,-6.89587 5.51164,-9.09845 1.91646,-1.46588 4.76557,-2.85355 6.95159,-2.06758 z"
       id="path858-3-9-1-5"
       sodipodi:nodetypes="aaaaaa" />
    <path
       style="fill:none;stroke:#000000;stroke-width:0.264583px;stroke-linecap:butt;stroke-linejoin:miter;stroke-opacity:1"
       d="m 80.568792,15.859981 0.814207,-0.504699"
       id="path1034"
       sodipodi:nodetypes="cc" />
    <path
       style="fill:none;stroke:#000000;stroke-width:0.264583px;stroke-linecap:butt;stroke-linejoin:miter;stroke-opacity:1"
       d="m 119.41236,22.391071 -0.43254,-0.651534"
       id="path1036"
       sodipodi:nodetypes="cc" />
  </g>
</svg>
